<svg width="790" height="84" viewBox="0 0 790 84" fill="none" xmlns="http://www.w3.org/2000/svg">
<path d="M3.70312 77.233C2.70312 77.233 1.89062 76.983 1.26562 76.483C0.703125 75.9205 0.328125 75.2955 0.140625 74.608C-0.046875 73.858 -0.046875 73.108 0.140625 72.358C0.390625 71.608 0.828125 70.983 1.45312 70.483C1.95312 68.358 2.07812 66.233 1.82812 64.108C1.57812 61.9205 1.32812 59.7642 1.07812 57.6392C0.765625 55.0142 0.671875 52.4517 0.796875 49.9517C0.921875 47.3892 1.17188 44.7955 1.54688 42.1705C1.92188 39.5455 2.32812 36.9517 2.76562 34.3892C3.20312 31.7642 3.57812 29.1392 3.89062 26.5142C4.20312 23.7017 4.45312 20.9205 4.64062 18.1705C4.89062 15.4205 5.07812 12.6392 5.20312 9.8267C5.20312 8.6392 5.60938 7.73295 6.42188 7.10795C7.23438 6.48295 8.10938 6.17045 9.04688 6.17045C9.98438 6.17045 10.8281 6.48295 11.5781 7.10795C12.3281 7.73295 12.6719 8.6392 12.6094 9.8267C12.4844 12.7642 12.2969 15.6705 12.0469 18.5455C11.8594 21.4205 11.6094 24.358 11.2969 27.358C10.9844 30.108 10.5781 32.7955 10.0781 35.4205C9.64062 38.0455 9.23438 40.733 8.85938 43.483C8.48438 46.108 8.29688 48.7017 8.29688 51.2642C8.29688 53.7642 8.45312 56.3267 8.76562 58.9517C8.95312 60.7642 9.10938 62.5767 9.23438 64.3892C9.42188 66.2017 9.39062 68.0142 9.14062 69.8267C13.8281 69.9517 18.5156 70.2017 23.2031 70.5767C27.8906 70.8892 32.5781 71.1392 37.2656 71.3267C38.4531 71.3892 39.3281 71.8267 39.8906 72.6392C40.5156 73.4517 40.8281 74.3267 40.8281 75.2642C40.8281 76.2017 40.5156 77.0455 39.8906 77.7955C39.3281 78.5455 38.4531 78.8892 37.2656 78.8267C31.5781 78.5767 25.9531 78.233 20.3906 77.7955C14.8906 77.4205 9.32812 77.233 3.70312 77.233Z" fill="black"/>
<path d="M44.0156 40.108C45.2031 38.483 46.6094 37.0455 48.2344 35.7955C49.9219 34.5455 51.7031 33.5767 53.5781 32.8892C55.4531 32.1392 57.3906 31.7642 59.3906 31.7642C61.3906 31.7017 63.3906 32.0767 65.3906 32.8892C67.3281 33.6392 69.0781 34.6705 70.6406 35.983C72.2031 37.233 73.4219 38.858 74.2969 40.858C74.9844 42.358 75.3906 43.983 75.5156 45.733C75.6406 47.483 75.1719 49.0767 74.1094 50.5142C73.1719 51.8267 72.0156 52.8267 70.6406 53.5142C69.3281 54.2017 67.8906 54.7017 66.3281 55.0142C64.8281 55.3267 63.2656 55.483 61.6406 55.483C60.0781 55.483 58.5781 55.4517 57.1406 55.3892C55.5156 55.3267 53.8906 55.2017 52.2656 55.0142C50.7031 54.8267 49.1094 54.6392 47.4844 54.4517C47.9844 57.2642 48.9844 59.7642 50.4844 61.9517C51.9844 64.1392 54.0156 65.7955 56.5781 66.9205C57.2656 67.1705 57.7969 67.358 58.1719 67.483C58.3594 67.5455 58.5156 67.608 58.6406 67.6705C58.8281 67.6705 59.0156 67.6705 59.2031 67.6705C59.7031 67.733 60.1094 67.7955 60.4219 67.858C60.7969 67.858 61.1406 67.8267 61.4531 67.7642C61.8906 67.7017 62.1719 67.6705 62.2969 67.6705C62.4844 67.608 62.6719 67.5455 62.8594 67.483C63.5469 67.2955 64.1406 67.0767 64.6406 66.8267C65.2031 66.5767 65.8594 66.1705 66.6094 65.608C66.9844 65.2955 67.4844 64.8267 68.1094 64.2017C68.7344 63.5767 69.2656 63.0142 69.7031 62.5142C70.3281 61.6392 71.0781 61.0455 71.9531 60.733C72.8906 60.4205 73.8281 60.5455 74.7656 61.108C75.5781 61.608 76.1406 62.3892 76.4531 63.4517C76.8281 64.4517 76.7031 65.3892 76.0781 66.2642C74.2656 68.7017 72.1094 70.7955 69.6094 72.5455C67.1719 74.233 64.3594 75.1392 61.1719 75.2642C58.6094 75.3892 56.1406 74.9517 53.7656 73.9517C51.3906 72.8892 49.2969 71.483 47.4844 69.733C45.2344 67.5455 43.4531 65.0142 42.1406 62.1392C40.8281 59.2642 40.1094 56.3267 39.9844 53.3267C39.4219 52.8892 38.9844 52.358 38.6719 51.733C38.4219 51.0455 38.3281 50.358 38.3906 49.6705C38.5156 48.983 38.7656 48.358 39.1406 47.7955C39.5156 47.1705 40.0781 46.7642 40.8281 46.5767C41.5156 44.2642 42.5781 42.108 44.0156 40.108ZM66.5156 42.358C65.8281 41.483 64.7656 40.7017 63.3281 40.0142C62.1406 39.5142 60.7344 39.2642 59.1094 39.2642C57.5469 39.2642 56.2031 39.5455 55.0781 40.108C53.6406 40.7955 52.3594 41.7642 51.2344 43.0142C50.1094 44.2017 49.2031 45.5455 48.5156 47.0455C50.0156 47.233 51.5156 47.4205 53.0156 47.608C54.5156 47.7955 56.0156 47.9205 57.5156 47.983C58.3281 47.983 59.1406 47.983 59.9531 47.983C60.7656 47.983 61.5781 47.9517 62.3906 47.8892C62.6406 47.8892 62.8594 47.8892 63.0469 47.8892C63.2969 47.8267 63.5469 47.7955 63.7969 47.7955C64.3594 47.6705 64.7656 47.608 65.0156 47.608C65.3281 47.5455 65.6406 47.4517 65.9531 47.3267C66.2031 47.2642 66.5156 47.1705 66.8906 47.0455C67.2031 46.9205 67.3906 46.8267 67.4531 46.7642C67.5156 46.7017 67.6094 46.6392 67.7344 46.5767L68.0156 45.4517C67.8906 45.2017 67.7969 44.983 67.7344 44.7955C67.7344 44.5455 67.6719 44.3267 67.5469 44.1392C67.4844 43.9517 67.3281 43.6705 67.0781 43.2955C66.8906 42.9205 66.7031 42.608 66.5156 42.358Z" fill="black"/>
<path d="M90.0469 73.9517C87.9219 73.0142 86.2344 71.733 84.9844 70.108C83.7969 68.4205 82.9531 66.5767 82.4531 64.5767C82.0156 62.5767 81.8906 60.5142 82.0781 58.3892C82.2656 56.2017 82.7031 54.108 83.3906 52.108C83.9531 50.5455 84.5781 48.9205 85.2656 47.233C86.0156 45.5455 86.8906 43.983 87.8906 42.5455C88.8906 41.108 90.0781 39.8892 91.4531 38.8892C92.8281 37.8267 94.4531 37.1392 96.3281 36.8267C98.2656 36.5142 100.203 36.4205 102.141 36.5455C104.141 36.608 106.109 36.7955 108.047 37.108C108.922 37.233 109.766 37.4517 110.578 37.7642C111.391 38.0142 112.203 38.2955 113.016 38.608C113.078 37.6705 113.484 36.8892 114.234 36.2642C115.047 35.6392 115.891 35.3267 116.766 35.3267C117.828 35.3267 118.672 35.7017 119.297 36.4517C119.984 37.1392 120.391 37.983 120.516 38.983C120.828 41.858 120.953 44.733 120.891 47.608C120.891 50.483 120.797 53.358 120.609 56.233C120.484 59.108 120.359 61.983 120.234 64.858C120.172 67.733 120.203 70.608 120.328 73.483C120.391 74.6705 120.016 75.5767 119.203 76.2017C118.453 76.7642 117.609 77.0455 116.672 77.0455C115.734 77.0455 114.859 76.7642 114.047 76.2017C113.297 75.5767 112.891 74.6705 112.828 73.483C109.266 74.983 105.484 75.858 101.484 76.108C97.4844 76.2955 93.6719 75.5767 90.0469 73.9517ZM90.7031 53.608C90.3281 54.733 89.9844 56.0142 89.6719 57.4517C89.3594 58.8892 89.2656 60.2642 89.3906 61.5767C89.5156 62.8892 89.9219 64.108 90.6094 65.233C91.2969 66.2955 92.4219 67.0455 93.9844 67.483C97.1719 68.483 100.359 68.7642 103.547 68.3267C106.797 67.8892 109.828 66.7642 112.641 64.9517C112.891 61.8892 113.078 58.9205 113.203 56.0455C113.391 53.1705 113.453 50.2642 113.391 47.3267C112.328 46.6392 111.234 46.0455 110.109 45.5455C109.047 44.983 107.859 44.608 106.547 44.4205C105.234 44.233 103.828 44.108 102.328 44.0455C100.891 43.9205 99.4844 43.9205 98.1094 44.0455C97.9844 44.0455 97.6406 44.1392 97.0781 44.3267C96.5781 44.4517 96.2969 44.5455 96.2344 44.608C95.6094 44.9205 95.0469 45.4205 94.5469 46.108C93.7344 47.233 93.0156 48.4517 92.3906 49.7642C91.7656 51.0142 91.2031 52.2955 90.7031 53.608Z" fill="black"/>
<path d="M131.297 74.608C130.422 74.2955 129.672 73.7017 129.047 72.8267C128.484 71.8892 128.391 70.9517 128.766 70.0142C129.828 67.0767 130.547 64.108 130.922 61.108C131.297 58.108 131.547 55.0455 131.672 51.9205C131.734 50.983 131.766 50.0767 131.766 49.2017C131.766 48.2642 131.797 47.3267 131.859 46.3892C131.672 45.6392 131.734 44.9205 132.047 44.233C132.172 42.4205 132.297 40.608 132.422 38.7955C132.547 36.9205 132.734 35.0767 132.984 33.2642C133.297 30.5142 133.609 27.7955 133.922 25.108C134.297 22.358 134.547 19.5767 134.672 16.7642C134.797 14.2017 134.922 11.6705 135.047 9.17045C135.234 6.60795 135.891 4.17045 137.016 1.85795C137.578 0.795455 138.328 0.201705 139.266 0.0767045C140.203 -0.110795 141.078 0.0454546 141.891 0.545455C142.703 0.982955 143.297 1.67045 143.672 2.60795C144.109 3.54545 144.047 4.54545 143.484 5.60795C142.984 6.67045 142.641 7.7642 142.453 8.8892C142.266 10.0142 142.141 11.1705 142.078 12.358C142.078 13.5455 142.078 14.733 142.078 15.9205C142.078 17.108 142.047 18.2642 141.984 19.3892C141.672 22.2017 141.359 25.0142 141.047 27.8267C140.734 30.5767 140.422 33.358 140.109 36.1705C142.734 34.858 145.641 34.1392 148.828 34.0142C151.328 33.9517 153.859 34.3892 156.422 35.3267C159.047 36.2017 161.172 37.6392 162.797 39.6392C163.734 40.8267 164.484 42.1392 165.047 43.5767C165.609 44.9517 166.047 46.4205 166.359 47.983C166.734 49.483 166.984 51.0142 167.109 52.5767C167.234 54.0767 167.359 55.5455 167.484 56.983C167.672 59.9205 167.734 62.858 167.672 65.7955C167.672 68.6705 167.609 71.608 167.484 74.608C167.484 75.7955 167.078 76.6705 166.266 77.233C165.453 77.858 164.578 78.1705 163.641 78.1705C162.703 78.1705 161.859 77.858 161.109 77.233C160.359 76.6705 160.016 75.7955 160.078 74.608C160.141 72.108 160.203 69.608 160.266 67.108C160.328 64.608 160.297 62.108 160.172 59.608C160.047 58.358 159.953 57.0767 159.891 55.7642C159.828 54.4517 159.672 53.1392 159.422 51.8267C159.297 51.2017 159.172 50.608 159.047 50.0455C158.984 49.4205 158.859 48.7955 158.672 48.1705C158.609 47.6705 158.453 47.1392 158.203 46.5767C158.016 46.0142 157.891 45.7017 157.828 45.6392C157.703 45.4517 157.609 45.2955 157.547 45.1705C157.484 44.983 157.391 44.7955 157.266 44.608C156.703 43.983 156.359 43.6392 156.234 43.5767C155.984 43.3892 155.766 43.2642 155.578 43.2017C155.391 43.0767 155.203 42.9517 155.016 42.8267C154.328 42.4517 153.547 42.1392 152.672 41.8892C151.797 41.6392 150.953 41.5142 150.141 41.5142C148.016 41.3892 146.016 41.7642 144.141 42.6392C142.328 43.5142 140.703 44.858 139.266 46.6705C139.141 50.983 138.922 55.2642 138.609 59.5142C138.297 63.7017 137.391 67.858 135.891 71.983C135.578 72.9205 134.984 73.6705 134.109 74.233C133.297 74.7955 132.359 74.9205 131.297 74.608Z" fill="black"/>
<path d="M179.766 55.6705C178.141 54.483 176.984 53.0142 176.297 51.2642C175.609 49.4517 175.578 47.5455 176.203 45.5455C176.828 43.733 177.797 42.108 179.109 40.6705C180.422 39.233 181.922 38.0767 183.609 37.2017C185.484 36.2017 187.484 35.4205 189.609 34.858C191.734 34.2955 193.891 33.983 196.078 33.9205C198.266 33.858 200.422 34.0767 202.547 34.5767C204.734 35.0142 206.797 35.733 208.734 36.733C209.797 37.2955 210.391 38.0455 210.516 38.983C210.641 39.9205 210.453 40.7955 209.953 41.608C209.516 42.4205 208.828 43.0142 207.891 43.3892C206.953 43.7642 205.953 43.6705 204.891 43.108C203.391 42.2955 201.703 41.7642 199.828 41.5142C197.953 41.2642 196.047 41.2642 194.109 41.5142C192.234 41.7017 190.453 42.1705 188.766 42.9205C187.078 43.6705 185.672 44.6392 184.547 45.8267C184.234 46.1392 184.016 46.358 183.891 46.483C183.828 46.608 183.703 46.8892 183.516 47.3267L183.328 48.358C183.516 48.9205 183.672 49.2642 183.797 49.3892C185.047 50.2017 186.328 50.733 187.641 50.983C189.016 51.1705 190.391 51.2955 191.766 51.358C193.703 51.483 195.672 51.608 197.672 51.733C199.734 51.7955 201.703 52.0455 203.578 52.483C205.516 52.9205 207.297 53.6392 208.922 54.6392C210.547 55.6392 211.922 57.108 213.047 59.0455C214.297 61.233 214.859 63.5142 214.734 65.8892C214.672 68.2017 213.766 70.2955 212.016 72.1705C210.266 74.0455 208.234 75.358 205.922 76.108C203.609 76.7955 201.266 77.2955 198.891 77.608C196.766 77.858 194.547 77.9205 192.234 77.7955C189.984 77.6705 187.797 77.2955 185.672 76.6705C183.609 76.108 181.672 75.233 179.859 74.0455C178.047 72.7955 176.547 71.1705 175.359 69.1705C174.797 68.1705 174.703 67.233 175.078 66.358C175.453 65.4205 176.016 64.733 176.766 64.2955C177.578 63.7955 178.453 63.608 179.391 63.733C180.391 63.858 181.203 64.4205 181.828 65.4205C182.703 66.858 183.922 67.9517 185.484 68.7017C187.047 69.4517 188.734 69.983 190.547 70.2955C192.422 70.5455 194.297 70.608 196.172 70.483C198.047 70.2955 199.734 70.0455 201.234 69.733C202.047 69.5455 202.859 69.2955 203.672 68.983C204.547 68.608 205.266 68.1705 205.828 67.6705C206.453 67.1705 206.891 66.608 207.141 65.983C207.391 65.2955 207.359 64.5455 207.047 63.733C206.422 62.1705 205.359 61.0455 203.859 60.358C202.422 59.6705 200.891 59.2642 199.266 59.1392C197.641 59.0142 195.984 58.9517 194.297 58.9517C192.609 58.9517 190.922 58.8892 189.234 58.7642C187.547 58.5767 185.891 58.2642 184.266 57.8267C182.641 57.3892 181.141 56.6705 179.766 55.6705Z" fill="black"/>
<path d="M255.328 77.233C254.328 77.233 253.516 76.983 252.891 76.483C252.328 75.9205 251.953 75.2955 251.766 74.608C251.578 73.858 251.578 73.108 251.766 72.358C252.016 71.608 252.453 70.983 253.078 70.483C253.578 68.358 253.703 66.233 253.453 64.108C253.203 61.9205 252.953 59.7642 252.703 57.6392C252.391 55.0142 252.297 52.4517 252.422 49.9517C252.547 47.3892 252.797 44.7955 253.172 42.1705C253.547 39.5455 253.953 36.9517 254.391 34.3892C254.828 31.7642 255.203 29.1392 255.516 26.5142C255.828 23.7017 256.078 20.9205 256.266 18.1705C256.516 15.4205 256.703 12.6392 256.828 9.8267C256.828 8.6392 257.234 7.73295 258.047 7.10795C258.859 6.48295 259.734 6.17045 260.672 6.17045C261.609 6.17045 262.453 6.48295 263.203 7.10795C263.953 7.73295 264.297 8.6392 264.234 9.8267C264.109 12.7642 263.922 15.6705 263.672 18.5455C263.484 21.4205 263.234 24.358 262.922 27.358C262.609 30.108 262.203 32.7955 261.703 35.4205C261.266 38.0455 260.859 40.733 260.484 43.483C260.109 46.108 259.922 48.7017 259.922 51.2642C259.922 53.7642 260.078 56.3267 260.391 58.9517C260.578 60.7642 260.734 62.5767 260.859 64.3892C261.047 66.2017 261.016 68.0142 260.766 69.8267C265.453 69.9517 270.141 70.2017 274.828 70.5767C279.516 70.8892 284.203 71.1392 288.891 71.3267C290.078 71.3892 290.953 71.8267 291.516 72.6392C292.141 73.4517 292.453 74.3267 292.453 75.2642C292.453 76.2017 292.141 77.0455 291.516 77.7955C290.953 78.5455 290.078 78.8892 288.891 78.8267C283.203 78.5767 277.578 78.233 272.016 77.7955C266.516 77.4205 260.953 77.233 255.328 77.233Z" fill="black"/>
<path d="M297.797 75.5455C298.297 72.5455 298.859 69.608 299.484 66.733C300.172 63.7955 300.672 60.8267 300.984 57.8267C301.234 54.8892 301.266 52.0142 301.078 49.2017C300.953 46.3267 301.141 43.4205 301.641 40.483C301.766 39.483 302.328 38.733 303.328 38.233C304.391 37.733 305.359 37.608 306.234 37.858C307.297 38.1705 308.016 38.7642 308.391 39.6392C308.828 40.5142 308.984 41.4517 308.859 42.4517C308.609 43.8892 308.484 45.358 308.484 46.858C308.547 48.358 308.609 49.858 308.672 51.358C308.672 54.233 308.484 57.108 308.109 59.983C307.734 62.983 307.234 65.9205 306.609 68.7955C306.047 71.6705 305.516 74.5767 305.016 77.5142C304.828 78.5142 304.234 79.2642 303.234 79.7642C302.234 80.2642 301.297 80.3892 300.422 80.1392C299.359 79.8267 298.609 79.233 298.172 78.358C297.734 77.483 297.609 76.5455 297.797 75.5455ZM302.297 32.4205C301.859 32.2955 301.422 32.108 300.984 31.858C300.547 31.5455 300.234 31.1705 300.047 30.733C299.859 30.233 299.703 29.7955 299.578 29.4205C299.453 29.0455 299.391 28.608 299.391 28.108C299.391 27.5455 299.484 26.983 299.672 26.4205C299.922 25.2955 300.422 24.483 301.172 23.983C301.422 23.608 301.766 23.3267 302.203 23.1392C302.891 22.7017 303.672 22.483 304.547 22.483C305.422 22.4205 306.203 22.6392 306.891 23.1392C307.203 23.3892 307.516 23.6705 307.828 23.983C308.141 24.233 308.391 24.5767 308.578 25.0142C308.703 25.3267 308.828 25.6705 308.953 26.0455C309.141 26.4205 309.203 26.7955 309.141 27.1705C309.078 27.608 309.016 28.0142 308.953 28.3892C308.891 28.7642 308.734 29.108 308.484 29.4205C308.172 29.858 307.922 30.1705 307.734 30.358C307.547 30.5455 307.234 30.7955 306.797 31.108C306.547 31.358 306.172 31.5455 305.672 31.6705C304.359 32.4205 303.234 32.6705 302.297 32.4205Z" fill="black"/>
<path d="M347.672 43.7642C348.859 43.7642 349.734 44.1392 350.297 44.8892C350.922 45.6392 351.234 46.483 351.234 47.4205C351.234 48.358 350.922 49.233 350.297 50.0455C349.734 50.7955 348.859 51.1705 347.672 51.1705C346.172 51.233 344.672 51.233 343.172 51.1705C341.734 51.0455 340.297 50.9205 338.859 50.7955C338.922 55.733 338.828 60.6705 338.578 65.608C338.391 70.5455 337.891 75.4517 337.078 80.3267C336.953 81.3892 336.391 82.1705 335.391 82.6705C334.391 83.1705 333.422 83.2642 332.484 82.9517C331.422 82.6392 330.672 82.0455 330.234 81.1705C329.859 80.358 329.766 79.4205 329.953 78.358C330.703 73.608 331.109 68.858 331.172 64.108C331.297 59.358 331.297 54.5767 331.172 49.7642C328.797 49.3892 326.391 49.0142 323.953 48.6392C321.516 48.2017 319.109 47.8267 316.734 47.5142C315.672 47.3892 314.922 46.8267 314.484 45.8267C313.984 44.7642 313.859 43.7955 314.109 42.9205C314.422 41.858 315.016 41.1392 315.891 40.7642C316.766 40.3267 317.703 40.1705 318.703 40.2955C320.766 40.608 322.828 40.9517 324.891 41.3267C326.953 41.6392 329.047 41.9517 331.172 42.2642C331.109 41.9517 331.078 41.483 331.078 40.858C331.078 35.233 331.047 29.6705 330.984 24.1705C330.984 18.6705 331.266 13.108 331.828 7.48295C331.953 6.48295 332.328 5.60795 332.953 4.85795C333.641 4.10795 334.516 3.73295 335.578 3.73295C336.516 3.73295 337.391 4.10795 338.203 4.85795C339.078 5.60795 339.453 6.48295 339.328 7.48295C338.703 13.483 338.391 19.4517 338.391 25.3892C338.453 31.2642 338.547 37.233 338.672 43.2955C340.172 43.4205 341.672 43.5455 343.172 43.6705C344.672 43.733 346.172 43.7642 347.672 43.7642Z" fill="black"/>
<path d="M384.984 43.7642C386.172 43.7642 387.047 44.1392 387.609 44.8892C388.234 45.6392 388.547 46.483 388.547 47.4205C388.547 48.358 388.234 49.233 387.609 50.0455C387.047 50.7955 386.172 51.1705 384.984 51.1705C383.484 51.233 381.984 51.233 380.484 51.1705C379.047 51.0455 377.609 50.9205 376.172 50.7955C376.234 55.733 376.141 60.6705 375.891 65.608C375.703 70.5455 375.203 75.4517 374.391 80.3267C374.266 81.3892 373.703 82.1705 372.703 82.6705C371.703 83.1705 370.734 83.2642 369.797 82.9517C368.734 82.6392 367.984 82.0455 367.547 81.1705C367.172 80.358 367.078 79.4205 367.266 78.358C368.016 73.608 368.422 68.858 368.484 64.108C368.609 59.358 368.609 54.5767 368.484 49.7642C366.109 49.3892 363.703 49.0142 361.266 48.6392C358.828 48.2017 356.422 47.8267 354.047 47.5142C352.984 47.3892 352.234 46.8267 351.797 45.8267C351.297 44.7642 351.172 43.7955 351.422 42.9205C351.734 41.858 352.328 41.1392 353.203 40.7642C354.078 40.3267 355.016 40.1705 356.016 40.2955C358.078 40.608 360.141 40.9517 362.203 41.3267C364.266 41.6392 366.359 41.9517 368.484 42.2642C368.422 41.9517 368.391 41.483 368.391 40.858C368.391 35.233 368.359 29.6705 368.297 24.1705C368.297 18.6705 368.578 13.108 369.141 7.48295C369.266 6.48295 369.641 5.60795 370.266 4.85795C370.953 4.10795 371.828 3.73295 372.891 3.73295C373.828 3.73295 374.703 4.10795 375.516 4.85795C376.391 5.60795 376.766 6.48295 376.641 7.48295C376.016 13.483 375.703 19.4517 375.703 25.3892C375.766 31.2642 375.859 37.233 375.984 43.2955C377.484 43.4205 378.984 43.5455 380.484 43.6705C381.984 43.733 383.484 43.7642 384.984 43.7642Z" fill="black"/>
<path d="M399.609 2.8892C400.734 2.8892 401.609 3.2642 402.234 4.0142C402.859 4.7642 403.234 5.6392 403.359 6.6392C403.984 12.5767 404.328 18.5142 404.391 24.4517C404.453 30.3892 404.359 36.3267 404.109 42.2642C403.922 48.2017 403.609 54.1392 403.172 60.0767C402.734 66.0142 402.297 71.9205 401.859 77.7955C401.734 78.858 401.328 79.733 400.641 80.4205C400.016 81.1705 399.172 81.5455 398.109 81.5455C397.172 81.5455 396.297 81.1705 395.484 80.4205C394.672 79.733 394.297 78.858 394.359 77.7955C394.797 71.9205 395.234 66.0142 395.672 60.0767C396.172 54.1392 396.516 48.2017 396.703 42.2642C396.953 36.3267 397.047 30.3892 396.984 24.4517C396.922 18.5142 396.578 12.5767 395.953 6.6392C395.828 5.6392 396.172 4.7642 396.984 4.0142C397.797 3.2642 398.672 2.8892 399.609 2.8892Z" fill="black"/>
<path d="M416.766 40.108C417.953 38.483 419.359 37.0455 420.984 35.7955C422.672 34.5455 424.453 33.5767 426.328 32.8892C428.203 32.1392 430.141 31.7642 432.141 31.7642C434.141 31.7017 436.141 32.0767 438.141 32.8892C440.078 33.6392 441.828 34.6705 443.391 35.983C444.953 37.233 446.172 38.858 447.047 40.858C447.734 42.358 448.141 43.983 448.266 45.733C448.391 47.483 447.922 49.0767 446.859 50.5142C445.922 51.8267 444.766 52.8267 443.391 53.5142C442.078 54.2017 440.641 54.7017 439.078 55.0142C437.578 55.3267 436.016 55.483 434.391 55.483C432.828 55.483 431.328 55.4517 429.891 55.3892C428.266 55.3267 426.641 55.2017 425.016 55.0142C423.453 54.8267 421.859 54.6392 420.234 54.4517C420.734 57.2642 421.734 59.7642 423.234 61.9517C424.734 64.1392 426.766 65.7955 429.328 66.9205C430.016 67.1705 430.547 67.358 430.922 67.483C431.109 67.5455 431.266 67.608 431.391 67.6705C431.578 67.6705 431.766 67.6705 431.953 67.6705C432.453 67.733 432.859 67.7955 433.172 67.858C433.547 67.858 433.891 67.8267 434.203 67.7642C434.641 67.7017 434.922 67.6705 435.047 67.6705C435.234 67.608 435.422 67.5455 435.609 67.483C436.297 67.2955 436.891 67.0767 437.391 66.8267C437.953 66.5767 438.609 66.1705 439.359 65.608C439.734 65.2955 440.234 64.8267 440.859 64.2017C441.484 63.5767 442.016 63.0142 442.453 62.5142C443.078 61.6392 443.828 61.0455 444.703 60.733C445.641 60.4205 446.578 60.5455 447.516 61.108C448.328 61.608 448.891 62.3892 449.203 63.4517C449.578 64.4517 449.453 65.3892 448.828 66.2642C447.016 68.7017 444.859 70.7955 442.359 72.5455C439.922 74.233 437.109 75.1392 433.922 75.2642C431.359 75.3892 428.891 74.9517 426.516 73.9517C424.141 72.8892 422.047 71.483 420.234 69.733C417.984 67.5455 416.203 65.0142 414.891 62.1392C413.578 59.2642 412.859 56.3267 412.734 53.3267C412.172 52.8892 411.734 52.358 411.422 51.733C411.172 51.0455 411.078 50.358 411.141 49.6705C411.266 48.983 411.516 48.358 411.891 47.7955C412.266 47.1705 412.828 46.7642 413.578 46.5767C414.266 44.2642 415.328 42.108 416.766 40.108ZM439.266 42.358C438.578 41.483 437.516 40.7017 436.078 40.0142C434.891 39.5142 433.484 39.2642 431.859 39.2642C430.297 39.2642 428.953 39.5455 427.828 40.108C426.391 40.7955 425.109 41.7642 423.984 43.0142C422.859 44.2017 421.953 45.5455 421.266 47.0455C422.766 47.233 424.266 47.4205 425.766 47.608C427.266 47.7955 428.766 47.9205 430.266 47.983C431.078 47.983 431.891 47.983 432.703 47.983C433.516 47.983 434.328 47.9517 435.141 47.8892C435.391 47.8892 435.609 47.8892 435.797 47.8892C436.047 47.8267 436.297 47.7955 436.547 47.7955C437.109 47.6705 437.516 47.608 437.766 47.608C438.078 47.5455 438.391 47.4517 438.703 47.3267C438.953 47.2642 439.266 47.1705 439.641 47.0455C439.953 46.9205 440.141 46.8267 440.203 46.7642C440.266 46.7017 440.359 46.6392 440.484 46.5767L440.766 45.4517C440.641 45.2017 440.547 44.983 440.484 44.7955C440.484 44.5455 440.422 44.3267 440.297 44.1392C440.234 43.9517 440.078 43.6705 439.828 43.2955C439.641 42.9205 439.453 42.608 439.266 42.358Z" fill="black"/>
<path d="M489.516 77.233C488.516 77.233 487.703 76.983 487.078 76.483C486.516 75.9205 486.141 75.2955 485.953 74.608C485.766 73.858 485.766 73.108 485.953 72.358C486.203 71.608 486.641 70.983 487.266 70.483C487.766 68.358 487.891 66.233 487.641 64.108C487.391 61.9205 487.141 59.7642 486.891 57.6392C486.578 55.0142 486.484 52.4517 486.609 49.9517C486.734 47.3892 486.984 44.7955 487.359 42.1705C487.734 39.5455 488.141 36.9517 488.578 34.3892C489.016 31.7642 489.391 29.1392 489.703 26.5142C490.016 23.7017 490.266 20.9205 490.453 18.1705C490.703 15.4205 490.891 12.6392 491.016 9.8267C491.016 8.6392 491.422 7.73295 492.234 7.10795C493.047 6.48295 493.922 6.17045 494.859 6.17045C495.797 6.17045 496.641 6.48295 497.391 7.10795C498.141 7.73295 498.484 8.6392 498.422 9.8267C498.297 12.7642 498.109 15.6705 497.859 18.5455C497.672 21.4205 497.422 24.358 497.109 27.358C496.797 30.108 496.391 32.7955 495.891 35.4205C495.453 38.0455 495.047 40.733 494.672 43.483C494.297 46.108 494.109 48.7017 494.109 51.2642C494.109 53.7642 494.266 56.3267 494.578 58.9517C494.766 60.7642 494.922 62.5767 495.047 64.3892C495.234 66.2017 495.203 68.0142 494.953 69.8267C499.641 69.9517 504.328 70.2017 509.016 70.5767C513.703 70.8892 518.391 71.1392 523.078 71.3267C524.266 71.3892 525.141 71.8267 525.703 72.6392C526.328 73.4517 526.641 74.3267 526.641 75.2642C526.641 76.2017 526.328 77.0455 525.703 77.7955C525.141 78.5455 524.266 78.8892 523.078 78.8267C517.391 78.5767 511.766 78.233 506.203 77.7955C500.703 77.4205 495.141 77.233 489.516 77.233Z" fill="black"/>
<path d="M529.828 40.108C531.016 38.483 532.422 37.0455 534.047 35.7955C535.734 34.5455 537.516 33.5767 539.391 32.8892C541.266 32.1392 543.203 31.7642 545.203 31.7642C547.203 31.7017 549.203 32.0767 551.203 32.8892C553.141 33.6392 554.891 34.6705 556.453 35.983C558.016 37.233 559.234 38.858 560.109 40.858C560.797 42.358 561.203 43.983 561.328 45.733C561.453 47.483 560.984 49.0767 559.922 50.5142C558.984 51.8267 557.828 52.8267 556.453 53.5142C555.141 54.2017 553.703 54.7017 552.141 55.0142C550.641 55.3267 549.078 55.483 547.453 55.483C545.891 55.483 544.391 55.4517 542.953 55.3892C541.328 55.3267 539.703 55.2017 538.078 55.0142C536.516 54.8267 534.922 54.6392 533.297 54.4517C533.797 57.2642 534.797 59.7642 536.297 61.9517C537.797 64.1392 539.828 65.7955 542.391 66.9205C543.078 67.1705 543.609 67.358 543.984 67.483C544.172 67.5455 544.328 67.608 544.453 67.6705C544.641 67.6705 544.828 67.6705 545.016 67.6705C545.516 67.733 545.922 67.7955 546.234 67.858C546.609 67.858 546.953 67.8267 547.266 67.7642C547.703 67.7017 547.984 67.6705 548.109 67.6705C548.297 67.608 548.484 67.5455 548.672 67.483C549.359 67.2955 549.953 67.0767 550.453 66.8267C551.016 66.5767 551.672 66.1705 552.422 65.608C552.797 65.2955 553.297 64.8267 553.922 64.2017C554.547 63.5767 555.078 63.0142 555.516 62.5142C556.141 61.6392 556.891 61.0455 557.766 60.733C558.703 60.4205 559.641 60.5455 560.578 61.108C561.391 61.608 561.953 62.3892 562.266 63.4517C562.641 64.4517 562.516 65.3892 561.891 66.2642C560.078 68.7017 557.922 70.7955 555.422 72.5455C552.984 74.233 550.172 75.1392 546.984 75.2642C544.422 75.3892 541.953 74.9517 539.578 73.9517C537.203 72.8892 535.109 71.483 533.297 69.733C531.047 67.5455 529.266 65.0142 527.953 62.1392C526.641 59.2642 525.922 56.3267 525.797 53.3267C525.234 52.8892 524.797 52.358 524.484 51.733C524.234 51.0455 524.141 50.358 524.203 49.6705C524.328 48.983 524.578 48.358 524.953 47.7955C525.328 47.1705 525.891 46.7642 526.641 46.5767C527.328 44.2642 528.391 42.108 529.828 40.108ZM552.328 42.358C551.641 41.483 550.578 40.7017 549.141 40.0142C547.953 39.5142 546.547 39.2642 544.922 39.2642C543.359 39.2642 542.016 39.5455 540.891 40.108C539.453 40.7955 538.172 41.7642 537.047 43.0142C535.922 44.2017 535.016 45.5455 534.328 47.0455C535.828 47.233 537.328 47.4205 538.828 47.608C540.328 47.7955 541.828 47.9205 543.328 47.983C544.141 47.983 544.953 47.983 545.766 47.983C546.578 47.983 547.391 47.9517 548.203 47.8892C548.453 47.8892 548.672 47.8892 548.859 47.8892C549.109 47.8267 549.359 47.7955 549.609 47.7955C550.172 47.6705 550.578 47.608 550.828 47.608C551.141 47.5455 551.453 47.4517 551.766 47.3267C552.016 47.2642 552.328 47.1705 552.703 47.0455C553.016 46.9205 553.203 46.8267 553.266 46.7642C553.328 46.7017 553.422 46.6392 553.547 46.5767L553.828 45.4517C553.703 45.2017 553.609 44.983 553.547 44.7955C553.547 44.5455 553.484 44.3267 553.359 44.1392C553.297 43.9517 553.141 43.6705 552.891 43.2955C552.703 42.9205 552.516 42.608 552.328 42.358Z" fill="black"/>
<path d="M572.672 55.6705C571.047 54.483 569.891 53.0142 569.203 51.2642C568.516 49.4517 568.484 47.5455 569.109 45.5455C569.734 43.733 570.703 42.108 572.016 40.6705C573.328 39.233 574.828 38.0767 576.516 37.2017C578.391 36.2017 580.391 35.4205 582.516 34.858C584.641 34.2955 586.797 33.983 588.984 33.9205C591.172 33.858 593.328 34.0767 595.453 34.5767C597.641 35.0142 599.703 35.733 601.641 36.733C602.703 37.2955 603.297 38.0455 603.422 38.983C603.547 39.9205 603.359 40.7955 602.859 41.608C602.422 42.4205 601.734 43.0142 600.797 43.3892C599.859 43.7642 598.859 43.6705 597.797 43.108C596.297 42.2955 594.609 41.7642 592.734 41.5142C590.859 41.2642 588.953 41.2642 587.016 41.5142C585.141 41.7017 583.359 42.1705 581.672 42.9205C579.984 43.6705 578.578 44.6392 577.453 45.8267C577.141 46.1392 576.922 46.358 576.797 46.483C576.734 46.608 576.609 46.8892 576.422 47.3267L576.234 48.358C576.422 48.9205 576.578 49.2642 576.703 49.3892C577.953 50.2017 579.234 50.733 580.547 50.983C581.922 51.1705 583.297 51.2955 584.672 51.358C586.609 51.483 588.578 51.608 590.578 51.733C592.641 51.7955 594.609 52.0455 596.484 52.483C598.422 52.9205 600.203 53.6392 601.828 54.6392C603.453 55.6392 604.828 57.108 605.953 59.0455C607.203 61.233 607.766 63.5142 607.641 65.8892C607.578 68.2017 606.672 70.2955 604.922 72.1705C603.172 74.0455 601.141 75.358 598.828 76.108C596.516 76.7955 594.172 77.2955 591.797 77.608C589.672 77.858 587.453 77.9205 585.141 77.7955C582.891 77.6705 580.703 77.2955 578.578 76.6705C576.516 76.108 574.578 75.233 572.766 74.0455C570.953 72.7955 569.453 71.1705 568.266 69.1705C567.703 68.1705 567.609 67.233 567.984 66.358C568.359 65.4205 568.922 64.733 569.672 64.2955C570.484 63.7955 571.359 63.608 572.297 63.733C573.297 63.858 574.109 64.4205 574.734 65.4205C575.609 66.858 576.828 67.9517 578.391 68.7017C579.953 69.4517 581.641 69.983 583.453 70.2955C585.328 70.5455 587.203 70.608 589.078 70.483C590.953 70.2955 592.641 70.0455 594.141 69.733C594.953 69.5455 595.766 69.2955 596.578 68.983C597.453 68.608 598.172 68.1705 598.734 67.6705C599.359 67.1705 599.797 66.608 600.047 65.983C600.297 65.2955 600.266 64.5455 599.953 63.733C599.328 62.1705 598.266 61.0455 596.766 60.358C595.328 59.6705 593.797 59.2642 592.172 59.1392C590.547 59.0142 588.891 58.9517 587.203 58.9517C585.516 58.9517 583.828 58.8892 582.141 58.7642C580.453 58.5767 578.797 58.2642 577.172 57.8267C575.547 57.3892 574.047 56.6705 572.672 55.6705Z" fill="black"/>
<path d="M618.328 55.6705C616.703 54.483 615.547 53.0142 614.859 51.2642C614.172 49.4517 614.141 47.5455 614.766 45.5455C615.391 43.733 616.359 42.108 617.672 40.6705C618.984 39.233 620.484 38.0767 622.172 37.2017C624.047 36.2017 626.047 35.4205 628.172 34.858C630.297 34.2955 632.453 33.983 634.641 33.9205C636.828 33.858 638.984 34.0767 641.109 34.5767C643.297 35.0142 645.359 35.733 647.297 36.733C648.359 37.2955 648.953 38.0455 649.078 38.983C649.203 39.9205 649.016 40.7955 648.516 41.608C648.078 42.4205 647.391 43.0142 646.453 43.3892C645.516 43.7642 644.516 43.6705 643.453 43.108C641.953 42.2955 640.266 41.7642 638.391 41.5142C636.516 41.2642 634.609 41.2642 632.672 41.5142C630.797 41.7017 629.016 42.1705 627.328 42.9205C625.641 43.6705 624.234 44.6392 623.109 45.8267C622.797 46.1392 622.578 46.358 622.453 46.483C622.391 46.608 622.266 46.8892 622.078 47.3267L621.891 48.358C622.078 48.9205 622.234 49.2642 622.359 49.3892C623.609 50.2017 624.891 50.733 626.203 50.983C627.578 51.1705 628.953 51.2955 630.328 51.358C632.266 51.483 634.234 51.608 636.234 51.733C638.297 51.7955 640.266 52.0455 642.141 52.483C644.078 52.9205 645.859 53.6392 647.484 54.6392C649.109 55.6392 650.484 57.108 651.609 59.0455C652.859 61.233 653.422 63.5142 653.297 65.8892C653.234 68.2017 652.328 70.2955 650.578 72.1705C648.828 74.0455 646.797 75.358 644.484 76.108C642.172 76.7955 639.828 77.2955 637.453 77.608C635.328 77.858 633.109 77.9205 630.797 77.7955C628.547 77.6705 626.359 77.2955 624.234 76.6705C622.172 76.108 620.234 75.233 618.422 74.0455C616.609 72.7955 615.109 71.1705 613.922 69.1705C613.359 68.1705 613.266 67.233 613.641 66.358C614.016 65.4205 614.578 64.733 615.328 64.2955C616.141 63.7955 617.016 63.608 617.953 63.733C618.953 63.858 619.766 64.4205 620.391 65.4205C621.266 66.858 622.484 67.9517 624.047 68.7017C625.609 69.4517 627.297 69.983 629.109 70.2955C630.984 70.5455 632.859 70.608 634.734 70.483C636.609 70.2955 638.297 70.0455 639.797 69.733C640.609 69.5455 641.422 69.2955 642.234 68.983C643.109 68.608 643.828 68.1705 644.391 67.6705C645.016 67.1705 645.453 66.608 645.703 65.983C645.953 65.2955 645.922 64.5455 645.609 63.733C644.984 62.1705 643.922 61.0455 642.422 60.358C640.984 59.6705 639.453 59.2642 637.828 59.1392C636.203 59.0142 634.547 58.9517 632.859 58.9517C631.172 58.9517 629.484 58.8892 627.797 58.7642C626.109 58.5767 624.453 58.2642 622.828 57.8267C621.203 57.3892 619.703 56.6705 618.328 55.6705Z" fill="black"/>
<path d="M683.297 33.2642C685.297 33.0142 687.391 32.9517 689.578 33.0767C691.766 33.1392 693.859 33.5142 695.859 34.2017C697.859 34.8267 699.672 35.7955 701.297 37.108C702.922 38.4205 704.172 40.1392 705.047 42.2642C705.672 43.7642 705.984 45.2955 705.984 46.858C706.047 48.358 705.828 49.8267 705.328 51.2642C704.891 52.6392 704.203 53.983 703.266 55.2955C702.391 56.5455 701.359 57.7017 700.172 58.7642C697.609 61.0767 694.797 63.0455 691.734 64.6705C688.672 66.2955 685.453 67.5455 682.078 68.4205C680.641 68.7955 679.141 69.1392 677.578 69.4517C676.078 69.7017 674.547 69.8267 672.984 69.8267C671.422 69.8267 669.891 69.6705 668.391 69.358C666.891 68.983 665.484 68.3892 664.172 67.5767C663.234 67.0142 662.672 66.2642 662.484 65.3267C662.109 64.2642 661.703 63.2642 661.266 62.3267C660.828 61.3892 660.391 60.4205 659.953 59.4205C659.578 58.4205 659.266 57.4205 659.016 56.4205C658.766 55.4205 658.641 54.3892 658.641 53.3267C658.641 51.2017 659.078 49.2017 659.953 47.3267C660.891 45.3892 662.141 43.7017 663.703 42.2642C666.328 39.7642 669.359 37.7642 672.797 36.2642C676.234 34.7642 679.734 33.7642 683.297 33.2642ZM693.891 41.3267C692.203 40.7017 690.391 40.3892 688.453 40.3892C686.391 40.3267 684.328 40.5455 682.266 41.0455C680.203 41.483 678.234 42.108 676.359 42.9205C674.609 43.608 672.797 44.5767 670.922 45.8267C669.109 47.0142 667.766 48.483 666.891 50.233C666.391 51.1705 666.141 52.1392 666.141 53.1392C666.203 54.0767 666.359 55.0455 666.609 56.0455C666.922 56.983 667.297 57.9517 667.734 58.9517C668.234 59.8892 668.672 60.8267 669.047 61.7642C670.047 62.0142 670.672 62.1392 670.922 62.1392C671.047 62.2017 671.203 62.233 671.391 62.233C671.578 62.233 671.734 62.233 671.859 62.233C673.109 62.358 674.234 62.3267 675.234 62.1392C675.922 62.1392 676.797 62.0142 677.859 61.7642C679.484 61.4517 681.047 61.0455 682.547 60.5455C684.047 59.983 685.422 59.3892 686.672 58.7642C688.109 58.0767 689.516 57.3267 690.891 56.5142C692.266 55.7017 693.422 54.858 694.359 53.983C694.984 53.4205 695.578 52.8267 696.141 52.2017C696.453 51.8892 696.672 51.6392 696.797 51.4517C697.109 51.0142 697.359 50.7017 697.547 50.5142C697.734 50.2642 697.891 49.983 698.016 49.6705C698.266 49.233 698.391 48.8892 698.391 48.6392C698.453 48.5142 698.484 48.358 698.484 48.1705C698.547 47.983 698.609 47.8267 698.672 47.7017V46.6705C698.609 46.4205 698.578 46.233 698.578 46.108C698.578 45.983 698.547 45.858 698.484 45.733C698.297 45.2955 698.109 44.983 697.922 44.7955C697.797 44.5455 697.641 44.2955 697.453 44.0455C697.516 44.108 697.422 44.0142 697.172 43.7642C696.984 43.5142 696.859 43.358 696.797 43.2955L696.047 42.5455C695.734 42.358 695.391 42.1392 695.016 41.8892C694.641 41.6392 694.266 41.4517 693.891 41.3267Z" fill="black"/>
<path d="M712.359 67.483C712.359 64.7955 712.547 62.0767 712.922 59.3267C713.359 56.0142 713.797 52.733 714.234 49.483C714.672 46.1705 714.859 42.8267 714.797 39.4517C714.797 38.2642 715.172 37.358 715.922 36.733C716.672 36.108 717.516 35.7955 718.453 35.7955C719.391 35.7955 720.266 36.108 721.078 36.733C721.891 37.358 722.297 38.2642 722.297 39.4517C724.734 39.2642 727.047 39.1705 729.234 39.1705C731.734 39.233 733.859 39.9517 735.609 41.3267C737.359 42.7017 738.672 44.5455 739.547 46.858C740.297 48.983 740.734 51.1705 740.859 53.4205C740.984 55.6705 741.078 57.9205 741.141 60.1705C741.203 63.358 741.297 66.5455 741.422 69.733C741.547 72.858 741.609 76.0142 741.609 79.2017C741.609 80.4517 741.203 81.358 740.391 81.9205C739.641 82.5455 738.797 82.858 737.859 82.858C736.984 82.858 736.141 82.5455 735.328 81.9205C734.578 81.358 734.203 80.4517 734.203 79.2017C734.203 76.2017 734.141 73.2642 734.016 70.3892C733.953 67.5142 733.859 64.5767 733.734 61.5767C733.609 59.9517 733.547 58.2955 733.547 56.608C733.609 54.858 733.484 53.2642 733.172 51.8267C732.984 50.9517 732.797 50.2017 732.609 49.5767C732.422 48.8892 732.078 48.233 731.578 47.608C731.453 47.358 731.172 47.1392 730.734 46.9517C730.359 46.7642 730.016 46.6705 729.703 46.6705C728.766 46.6705 727.891 46.733 727.078 46.858C726.266 46.983 725.422 47.1705 724.547 47.4205C724.172 47.5455 723.797 47.6705 723.422 47.7955C723.047 47.9205 722.703 48.0767 722.391 48.2642C721.766 50.5142 721.297 52.6705 720.984 54.733C720.734 56.733 720.484 58.7642 720.234 60.8267C720.047 62.3267 719.922 63.858 719.859 65.4205C719.859 66.9205 719.797 68.4205 719.672 69.9205C719.609 71.4205 719.422 72.9205 719.109 74.4205C718.859 75.9205 718.391 77.358 717.703 78.733C717.141 79.7955 716.391 80.3892 715.453 80.5142C714.516 80.7017 713.641 80.5455 712.828 80.0455C712.078 79.608 711.484 78.9205 711.047 77.983C710.672 77.0455 710.734 76.0455 711.234 74.983C711.797 73.858 712.109 72.6392 712.172 71.3267C712.234 70.0142 712.297 68.733 712.359 67.483Z" fill="black"/>
<path d="M754.266 55.6705C752.641 54.483 751.484 53.0142 750.797 51.2642C750.109 49.4517 750.078 47.5455 750.703 45.5455C751.328 43.733 752.297 42.108 753.609 40.6705C754.922 39.233 756.422 38.0767 758.109 37.2017C759.984 36.2017 761.984 35.4205 764.109 34.858C766.234 34.2955 768.391 33.983 770.578 33.9205C772.766 33.858 774.922 34.0767 777.047 34.5767C779.234 35.0142 781.297 35.733 783.234 36.733C784.297 37.2955 784.891 38.0455 785.016 38.983C785.141 39.9205 784.953 40.7955 784.453 41.608C784.016 42.4205 783.328 43.0142 782.391 43.3892C781.453 43.7642 780.453 43.6705 779.391 43.108C777.891 42.2955 776.203 41.7642 774.328 41.5142C772.453 41.2642 770.547 41.2642 768.609 41.5142C766.734 41.7017 764.953 42.1705 763.266 42.9205C761.578 43.6705 760.172 44.6392 759.047 45.8267C758.734 46.1392 758.516 46.358 758.391 46.483C758.328 46.608 758.203 46.8892 758.016 47.3267L757.828 48.358C758.016 48.9205 758.172 49.2642 758.297 49.3892C759.547 50.2017 760.828 50.733 762.141 50.983C763.516 51.1705 764.891 51.2955 766.266 51.358C768.203 51.483 770.172 51.608 772.172 51.733C774.234 51.7955 776.203 52.0455 778.078 52.483C780.016 52.9205 781.797 53.6392 783.422 54.6392C785.047 55.6392 786.422 57.108 787.547 59.0455C788.797 61.233 789.359 63.5142 789.234 65.8892C789.172 68.2017 788.266 70.2955 786.516 72.1705C784.766 74.0455 782.734 75.358 780.422 76.108C778.109 76.7955 775.766 77.2955 773.391 77.608C771.266 77.858 769.047 77.9205 766.734 77.7955C764.484 77.6705 762.297 77.2955 760.172 76.6705C758.109 76.108 756.172 75.233 754.359 74.0455C752.547 72.7955 751.047 71.1705 749.859 69.1705C749.297 68.1705 749.203 67.233 749.578 66.358C749.953 65.4205 750.516 64.733 751.266 64.2955C752.078 63.7955 752.953 63.608 753.891 63.733C754.891 63.858 755.703 64.4205 756.328 65.4205C757.203 66.858 758.422 67.9517 759.984 68.7017C761.547 69.4517 763.234 69.983 765.047 70.2955C766.922 70.5455 768.797 70.608 770.672 70.483C772.547 70.2955 774.234 70.0455 775.734 69.733C776.547 69.5455 777.359 69.2955 778.172 68.983C779.047 68.608 779.766 68.1705 780.328 67.6705C780.953 67.1705 781.391 66.608 781.641 65.983C781.891 65.2955 781.859 64.5455 781.547 63.733C780.922 62.1705 779.859 61.0455 778.359 60.358C776.922 59.6705 775.391 59.2642 773.766 59.1392C772.141 59.0142 770.484 58.9517 768.797 58.9517C767.109 58.9517 765.422 58.8892 763.734 58.7642C762.047 58.5767 760.391 58.2642 758.766 57.8267C757.141 57.3892 755.641 56.6705 754.266 55.6705Z" fill="black"/>
</svg>
