<svg width="917" height="144" viewBox="0 0 917 144" fill="none" xmlns="http://www.w3.org/2000/svg">
<path d="M51.2825 61.8354C45.9135 47.3809 18.5035 38.2819 9.45647 54.6289C-0.818584 73.1959 4.00996 134.618 31.618 139.237C42.8155 141.111 45.3715 123.573 54.7165 125.449C65.424 127.599 65.5965 153.892 89.3645 127.642C112.485 102.11 103.384 24.2664 55.029 60.8964" stroke="black" stroke-width="8" stroke-linecap="round" stroke-linejoin="round"/>
<path d="M49.3996 31.29C55.8521 41.366 53.3511 51.67 53.3511 62.445" stroke="black" stroke-width="8" stroke-linecap="round" stroke-linejoin="round"/>
<path d="M53.8476 54.815C53.1566 46.454 70.9586 -0.474899 78.1901 5.0345C89.9676 14.0098 61.6971 46.101 56.0061 51.0575" stroke="black" stroke-width="8" stroke-linecap="round" stroke-linejoin="round"/>
<path d="M130.703 123.233C129.703 123.233 128.891 122.983 128.266 122.483C127.703 121.92 127.328 121.295 127.141 120.608C126.953 119.858 126.953 119.108 127.141 118.358C127.391 117.608 127.828 116.983 128.453 116.483C128.953 114.358 129.078 112.233 128.828 110.108C128.578 107.92 128.328 105.764 128.078 103.639C127.766 101.014 127.672 98.4517 127.797 95.9517C127.922 93.3892 128.172 90.7955 128.547 88.1705C128.922 85.5455 129.328 82.9517 129.766 80.3892C130.203 77.7642 130.578 75.1392 130.891 72.5142C131.203 69.7017 131.453 66.9205 131.641 64.1705C131.891 61.4205 132.078 58.6392 132.203 55.8267C132.203 54.6392 132.609 53.733 133.422 53.108C134.234 52.483 135.109 52.1705 136.047 52.1705C136.984 52.1705 137.828 52.483 138.578 53.108C139.328 53.733 139.672 54.6392 139.609 55.8267C139.484 58.7642 139.297 61.6705 139.047 64.5455C138.859 67.4205 138.609 70.358 138.297 73.358C137.984 76.108 137.578 78.7955 137.078 81.4205C136.641 84.0455 136.234 86.733 135.859 89.483C135.484 92.108 135.297 94.7017 135.297 97.2642C135.297 99.7642 135.453 102.327 135.766 104.952C135.953 106.764 136.109 108.577 136.234 110.389C136.422 112.202 136.391 114.014 136.141 115.827C140.828 115.952 145.516 116.202 150.203 116.577C154.891 116.889 159.578 117.139 164.266 117.327C165.453 117.389 166.328 117.827 166.891 118.639C167.516 119.452 167.828 120.327 167.828 121.264C167.828 122.202 167.516 123.045 166.891 123.795C166.328 124.545 165.453 124.889 164.266 124.827C158.578 124.577 152.953 124.233 147.391 123.795C141.891 123.42 136.328 123.233 130.703 123.233Z" fill="black"/>
<path d="M171.016 86.108C172.203 84.483 173.609 83.0455 175.234 81.7955C176.922 80.5455 178.703 79.5767 180.578 78.8892C182.453 78.1392 184.391 77.7642 186.391 77.7642C188.391 77.7017 190.391 78.0767 192.391 78.8892C194.328 79.6392 196.078 80.6705 197.641 81.983C199.203 83.233 200.422 84.858 201.297 86.858C201.984 88.358 202.391 89.983 202.516 91.733C202.641 93.483 202.172 95.0767 201.109 96.5142C200.172 97.8267 199.016 98.8267 197.641 99.5142C196.328 100.202 194.891 100.702 193.328 101.014C191.828 101.327 190.266 101.483 188.641 101.483C187.078 101.483 185.578 101.452 184.141 101.389C182.516 101.327 180.891 101.202 179.266 101.014C177.703 100.827 176.109 100.639 174.484 100.452C174.984 103.264 175.984 105.764 177.484 107.952C178.984 110.139 181.016 111.795 183.578 112.92C184.266 113.17 184.797 113.358 185.172 113.483C185.359 113.545 185.516 113.608 185.641 113.67C185.828 113.67 186.016 113.67 186.203 113.67C186.703 113.733 187.109 113.795 187.422 113.858C187.797 113.858 188.141 113.827 188.453 113.764C188.891 113.702 189.172 113.67 189.297 113.67C189.484 113.608 189.672 113.545 189.859 113.483C190.547 113.295 191.141 113.077 191.641 112.827C192.203 112.577 192.859 112.17 193.609 111.608C193.984 111.295 194.484 110.827 195.109 110.202C195.734 109.577 196.266 109.014 196.703 108.514C197.328 107.639 198.078 107.045 198.953 106.733C199.891 106.42 200.828 106.545 201.766 107.108C202.578 107.608 203.141 108.389 203.453 109.452C203.828 110.452 203.703 111.389 203.078 112.264C201.266 114.702 199.109 116.795 196.609 118.545C194.172 120.233 191.359 121.139 188.172 121.264C185.609 121.389 183.141 120.952 180.766 119.952C178.391 118.889 176.297 117.483 174.484 115.733C172.234 113.545 170.453 111.014 169.141 108.139C167.828 105.264 167.109 102.327 166.984 99.3267C166.422 98.8892 165.984 98.358 165.672 97.733C165.422 97.0455 165.328 96.358 165.391 95.6705C165.516 94.983 165.766 94.358 166.141 93.7955C166.516 93.1705 167.078 92.7642 167.828 92.5767C168.516 90.2642 169.578 88.108 171.016 86.108ZM193.516 88.358C192.828 87.483 191.766 86.7017 190.328 86.0142C189.141 85.5142 187.734 85.2642 186.109 85.2642C184.547 85.2642 183.203 85.5455 182.078 86.108C180.641 86.7955 179.359 87.7642 178.234 89.0142C177.109 90.2017 176.203 91.5455 175.516 93.0455C177.016 93.233 178.516 93.4205 180.016 93.608C181.516 93.7955 183.016 93.9205 184.516 93.983C185.328 93.983 186.141 93.983 186.953 93.983C187.766 93.983 188.578 93.9517 189.391 93.8892C189.641 93.8892 189.859 93.8892 190.047 93.8892C190.297 93.8267 190.547 93.7955 190.797 93.7955C191.359 93.6705 191.766 93.608 192.016 93.608C192.328 93.5455 192.641 93.4517 192.953 93.3267C193.203 93.2642 193.516 93.1705 193.891 93.0455C194.203 92.9205 194.391 92.8267 194.453 92.7642C194.516 92.7017 194.609 92.6392 194.734 92.5767L195.016 91.4517C194.891 91.2017 194.797 90.983 194.734 90.7955C194.734 90.5455 194.672 90.3267 194.547 90.1392C194.484 89.9517 194.328 89.6705 194.078 89.2955C193.891 88.9205 193.703 88.608 193.516 88.358Z" fill="black"/>
<path d="M217.047 119.952C214.922 119.014 213.234 117.733 211.984 116.108C210.797 114.42 209.953 112.577 209.453 110.577C209.016 108.577 208.891 106.514 209.078 104.389C209.266 102.202 209.703 100.108 210.391 98.108C210.953 96.5455 211.578 94.9205 212.266 93.233C213.016 91.5455 213.891 89.983 214.891 88.5455C215.891 87.108 217.078 85.8892 218.453 84.8892C219.828 83.8267 221.453 83.1392 223.328 82.8267C225.266 82.5142 227.203 82.4205 229.141 82.5455C231.141 82.608 233.109 82.7955 235.047 83.108C235.922 83.233 236.766 83.4517 237.578 83.7642C238.391 84.0142 239.203 84.2955 240.016 84.608C240.078 83.6705 240.484 82.8892 241.234 82.2642C242.047 81.6392 242.891 81.3267 243.766 81.3267C244.828 81.3267 245.672 81.7017 246.297 82.4517C246.984 83.1392 247.391 83.983 247.516 84.983C247.828 87.858 247.953 90.733 247.891 93.608C247.891 96.483 247.797 99.358 247.609 102.233C247.484 105.108 247.359 107.983 247.234 110.858C247.172 113.733 247.203 116.608 247.328 119.483C247.391 120.67 247.016 121.577 246.203 122.202C245.453 122.764 244.609 123.045 243.672 123.045C242.734 123.045 241.859 122.764 241.047 122.202C240.297 121.577 239.891 120.67 239.828 119.483C236.266 120.983 232.484 121.858 228.484 122.108C224.484 122.295 220.672 121.577 217.047 119.952ZM217.703 99.608C217.328 100.733 216.984 102.014 216.672 103.452C216.359 104.889 216.266 106.264 216.391 107.577C216.516 108.889 216.922 110.108 217.609 111.233C218.297 112.295 219.422 113.045 220.984 113.483C224.172 114.483 227.359 114.764 230.547 114.327C233.797 113.889 236.828 112.764 239.641 110.952C239.891 107.889 240.078 104.92 240.203 102.045C240.391 99.1705 240.453 96.2642 240.391 93.3267C239.328 92.6392 238.234 92.0455 237.109 91.5455C236.047 90.983 234.859 90.608 233.547 90.4205C232.234 90.233 230.828 90.108 229.328 90.0455C227.891 89.9205 226.484 89.9205 225.109 90.0455C224.984 90.0455 224.641 90.1392 224.078 90.3267C223.578 90.4517 223.297 90.5455 223.234 90.608C222.609 90.9205 222.047 91.4205 221.547 92.108C220.734 93.233 220.016 94.4517 219.391 95.7642C218.766 97.0142 218.203 98.2955 217.703 99.608Z" fill="black"/>
<path d="M258.297 120.608C257.422 120.295 256.672 119.702 256.047 118.827C255.484 117.889 255.391 116.952 255.766 116.014C256.828 113.077 257.547 110.108 257.922 107.108C258.297 104.108 258.547 101.045 258.672 97.9205C258.734 96.983 258.766 96.0767 258.766 95.2017C258.766 94.2642 258.797 93.3267 258.859 92.3892C258.672 91.6392 258.734 90.9205 259.047 90.233C259.172 88.4205 259.297 86.608 259.422 84.7955C259.547 82.9205 259.734 81.0767 259.984 79.2642C260.297 76.5142 260.609 73.7955 260.922 71.108C261.297 68.358 261.547 65.5767 261.672 62.7642C261.797 60.2017 261.922 57.6705 262.047 55.1705C262.234 52.608 262.891 50.1705 264.016 47.858C264.578 46.7955 265.328 46.2017 266.266 46.0767C267.203 45.8892 268.078 46.0455 268.891 46.5455C269.703 46.983 270.297 47.6705 270.672 48.608C271.109 49.5455 271.047 50.5455 270.484 51.608C269.984 52.6705 269.641 53.7642 269.453 54.8892C269.266 56.0142 269.141 57.1705 269.078 58.358C269.078 59.5455 269.078 60.733 269.078 61.9205C269.078 63.108 269.047 64.2642 268.984 65.3892C268.672 68.2017 268.359 71.0142 268.047 73.8267C267.734 76.5767 267.422 79.358 267.109 82.1705C269.734 80.858 272.641 80.1392 275.828 80.0142C278.328 79.9517 280.859 80.3892 283.422 81.3267C286.047 82.2017 288.172 83.6392 289.797 85.6392C290.734 86.8267 291.484 88.1392 292.047 89.5767C292.609 90.9517 293.047 92.4205 293.359 93.983C293.734 95.483 293.984 97.0142 294.109 98.5767C294.234 100.077 294.359 101.545 294.484 102.983C294.672 105.92 294.734 108.858 294.672 111.795C294.672 114.67 294.609 117.608 294.484 120.608C294.484 121.795 294.078 122.67 293.266 123.233C292.453 123.858 291.578 124.17 290.641 124.17C289.703 124.17 288.859 123.858 288.109 123.233C287.359 122.67 287.016 121.795 287.078 120.608C287.141 118.108 287.203 115.608 287.266 113.108C287.328 110.608 287.297 108.108 287.172 105.608C287.047 104.358 286.953 103.077 286.891 101.764C286.828 100.452 286.672 99.1392 286.422 97.8267C286.297 97.2017 286.172 96.608 286.047 96.0455C285.984 95.4205 285.859 94.7955 285.672 94.1705C285.609 93.6705 285.453 93.1392 285.203 92.5767C285.016 92.0142 284.891 91.7017 284.828 91.6392C284.703 91.4517 284.609 91.2955 284.547 91.1705C284.484 90.983 284.391 90.7955 284.266 90.608C283.703 89.983 283.359 89.6392 283.234 89.5767C282.984 89.3892 282.766 89.2642 282.578 89.2017C282.391 89.0767 282.203 88.9517 282.016 88.8267C281.328 88.4517 280.547 88.1392 279.672 87.8892C278.797 87.6392 277.953 87.5142 277.141 87.5142C275.016 87.3892 273.016 87.7642 271.141 88.6392C269.328 89.5142 267.703 90.858 266.266 92.6705C266.141 96.983 265.922 101.264 265.609 105.514C265.297 109.702 264.391 113.858 262.891 117.983C262.578 118.92 261.984 119.67 261.109 120.233C260.297 120.795 259.359 120.92 258.297 120.608Z" fill="black"/>
<path d="M306.766 101.67C305.141 100.483 303.984 99.0142 303.297 97.2642C302.609 95.4517 302.578 93.5455 303.203 91.5455C303.828 89.733 304.797 88.108 306.109 86.6705C307.422 85.233 308.922 84.0767 310.609 83.2017C312.484 82.2017 314.484 81.4205 316.609 80.858C318.734 80.2955 320.891 79.983 323.078 79.9205C325.266 79.858 327.422 80.0767 329.547 80.5767C331.734 81.0142 333.797 81.733 335.734 82.733C336.797 83.2955 337.391 84.0455 337.516 84.983C337.641 85.9205 337.453 86.7955 336.953 87.608C336.516 88.4205 335.828 89.0142 334.891 89.3892C333.953 89.7642 332.953 89.6705 331.891 89.108C330.391 88.2955 328.703 87.7642 326.828 87.5142C324.953 87.2642 323.047 87.2642 321.109 87.5142C319.234 87.7017 317.453 88.1705 315.766 88.9205C314.078 89.6705 312.672 90.6392 311.547 91.8267C311.234 92.1392 311.016 92.358 310.891 92.483C310.828 92.608 310.703 92.8892 310.516 93.3267L310.328 94.358C310.516 94.9205 310.672 95.2642 310.797 95.3892C312.047 96.2017 313.328 96.733 314.641 96.983C316.016 97.1705 317.391 97.2955 318.766 97.358C320.703 97.483 322.672 97.608 324.672 97.733C326.734 97.7955 328.703 98.0455 330.578 98.483C332.516 98.9205 334.297 99.6392 335.922 100.639C337.547 101.639 338.922 103.108 340.047 105.045C341.297 107.233 341.859 109.514 341.734 111.889C341.672 114.202 340.766 116.295 339.016 118.17C337.266 120.045 335.234 121.358 332.922 122.108C330.609 122.795 328.266 123.295 325.891 123.608C323.766 123.858 321.547 123.92 319.234 123.795C316.984 123.67 314.797 123.295 312.672 122.67C310.609 122.108 308.672 121.233 306.859 120.045C305.047 118.795 303.547 117.17 302.359 115.17C301.797 114.17 301.703 113.233 302.078 112.358C302.453 111.42 303.016 110.733 303.766 110.295C304.578 109.795 305.453 109.608 306.391 109.733C307.391 109.858 308.203 110.42 308.828 111.42C309.703 112.858 310.922 113.952 312.484 114.702C314.047 115.452 315.734 115.983 317.547 116.295C319.422 116.545 321.297 116.608 323.172 116.483C325.047 116.295 326.734 116.045 328.234 115.733C329.047 115.545 329.859 115.295 330.672 114.983C331.547 114.608 332.266 114.17 332.828 113.67C333.453 113.17 333.891 112.608 334.141 111.983C334.391 111.295 334.359 110.545 334.047 109.733C333.422 108.17 332.359 107.045 330.859 106.358C329.422 105.67 327.891 105.264 326.266 105.139C324.641 105.014 322.984 104.952 321.297 104.952C319.609 104.952 317.922 104.889 316.234 104.764C314.547 104.577 312.891 104.264 311.266 103.827C309.641 103.389 308.141 102.67 306.766 101.67Z" fill="black"/>
<path d="M382.328 123.233C381.328 123.233 380.516 122.983 379.891 122.483C379.328 121.92 378.953 121.295 378.766 120.608C378.578 119.858 378.578 119.108 378.766 118.358C379.016 117.608 379.453 116.983 380.078 116.483C380.578 114.358 380.703 112.233 380.453 110.108C380.203 107.92 379.953 105.764 379.703 103.639C379.391 101.014 379.297 98.4517 379.422 95.9517C379.547 93.3892 379.797 90.7955 380.172 88.1705C380.547 85.5455 380.953 82.9517 381.391 80.3892C381.828 77.7642 382.203 75.1392 382.516 72.5142C382.828 69.7017 383.078 66.9205 383.266 64.1705C383.516 61.4205 383.703 58.6392 383.828 55.8267C383.828 54.6392 384.234 53.733 385.047 53.108C385.859 52.483 386.734 52.1705 387.672 52.1705C388.609 52.1705 389.453 52.483 390.203 53.108C390.953 53.733 391.297 54.6392 391.234 55.8267C391.109 58.7642 390.922 61.6705 390.672 64.5455C390.484 67.4205 390.234 70.358 389.922 73.358C389.609 76.108 389.203 78.7955 388.703 81.4205C388.266 84.0455 387.859 86.733 387.484 89.483C387.109 92.108 386.922 94.7017 386.922 97.2642C386.922 99.7642 387.078 102.327 387.391 104.952C387.578 106.764 387.734 108.577 387.859 110.389C388.047 112.202 388.016 114.014 387.766 115.827C392.453 115.952 397.141 116.202 401.828 116.577C406.516 116.889 411.203 117.139 415.891 117.327C417.078 117.389 417.953 117.827 418.516 118.639C419.141 119.452 419.453 120.327 419.453 121.264C419.453 122.202 419.141 123.045 418.516 123.795C417.953 124.545 417.078 124.889 415.891 124.827C410.203 124.577 404.578 124.233 399.016 123.795C393.516 123.42 387.953 123.233 382.328 123.233Z" fill="black"/>
<path d="M424.797 121.545C425.297 118.545 425.859 115.608 426.484 112.733C427.172 109.795 427.672 106.827 427.984 103.827C428.234 100.889 428.266 98.0142 428.078 95.2017C427.953 92.3267 428.141 89.4205 428.641 86.483C428.766 85.483 429.328 84.733 430.328 84.233C431.391 83.733 432.359 83.608 433.234 83.858C434.297 84.1705 435.016 84.7642 435.391 85.6392C435.828 86.5142 435.984 87.4517 435.859 88.4517C435.609 89.8892 435.484 91.358 435.484 92.858C435.547 94.358 435.609 95.858 435.672 97.358C435.672 100.233 435.484 103.108 435.109 105.983C434.734 108.983 434.234 111.92 433.609 114.795C433.047 117.67 432.516 120.577 432.016 123.514C431.828 124.514 431.234 125.264 430.234 125.764C429.234 126.264 428.297 126.389 427.422 126.139C426.359 125.827 425.609 125.233 425.172 124.358C424.734 123.483 424.609 122.545 424.797 121.545ZM429.297 78.4205C428.859 78.2955 428.422 78.108 427.984 77.858C427.547 77.5455 427.234 77.1705 427.047 76.733C426.859 76.233 426.703 75.7955 426.578 75.4205C426.453 75.0455 426.391 74.608 426.391 74.108C426.391 73.5455 426.484 72.983 426.672 72.4205C426.922 71.2955 427.422 70.483 428.172 69.983C428.422 69.608 428.766 69.3267 429.203 69.1392C429.891 68.7017 430.672 68.483 431.547 68.483C432.422 68.4205 433.203 68.6392 433.891 69.1392C434.203 69.3892 434.516 69.6705 434.828 69.983C435.141 70.233 435.391 70.5767 435.578 71.0142C435.703 71.3267 435.828 71.6705 435.953 72.0455C436.141 72.4205 436.203 72.7955 436.141 73.1705C436.078 73.608 436.016 74.0142 435.953 74.3892C435.891 74.7642 435.734 75.108 435.484 75.4205C435.172 75.858 434.922 76.1705 434.734 76.358C434.547 76.5455 434.234 76.7955 433.797 77.108C433.547 77.358 433.172 77.5455 432.672 77.6705C431.359 78.4205 430.234 78.6705 429.297 78.4205Z" fill="black"/>
<path d="M474.672 89.7642C475.859 89.7642 476.734 90.1392 477.297 90.8892C477.922 91.6392 478.234 92.483 478.234 93.4205C478.234 94.358 477.922 95.233 477.297 96.0455C476.734 96.7955 475.859 97.1705 474.672 97.1705C473.172 97.233 471.672 97.233 470.172 97.1705C468.734 97.0455 467.297 96.9205 465.859 96.7955C465.922 101.733 465.828 106.67 465.578 111.608C465.391 116.545 464.891 121.452 464.078 126.327C463.953 127.389 463.391 128.17 462.391 128.67C461.391 129.17 460.422 129.264 459.484 128.952C458.422 128.639 457.672 128.045 457.234 127.17C456.859 126.358 456.766 125.42 456.953 124.358C457.703 119.608 458.109 114.858 458.172 110.108C458.297 105.358 458.297 100.577 458.172 95.7642C455.797 95.3892 453.391 95.0142 450.953 94.6392C448.516 94.2017 446.109 93.8267 443.734 93.5142C442.672 93.3892 441.922 92.8267 441.484 91.8267C440.984 90.7642 440.859 89.7955 441.109 88.9205C441.422 87.858 442.016 87.1392 442.891 86.7642C443.766 86.3267 444.703 86.1705 445.703 86.2955C447.766 86.608 449.828 86.9517 451.891 87.3267C453.953 87.6392 456.047 87.9517 458.172 88.2642C458.109 87.9517 458.078 87.483 458.078 86.858C458.078 81.233 458.047 75.6705 457.984 70.1705C457.984 64.6705 458.266 59.108 458.828 53.483C458.953 52.483 459.328 51.608 459.953 50.858C460.641 50.108 461.516 49.733 462.578 49.733C463.516 49.733 464.391 50.108 465.203 50.858C466.078 51.608 466.453 52.483 466.328 53.483C465.703 59.483 465.391 65.4517 465.391 71.3892C465.453 77.2642 465.547 83.233 465.672 89.2955C467.172 89.4205 468.672 89.5455 470.172 89.6705C471.672 89.733 473.172 89.7642 474.672 89.7642Z" fill="black"/>
<path d="M511.984 89.7642C513.172 89.7642 514.047 90.1392 514.609 90.8892C515.234 91.6392 515.547 92.483 515.547 93.4205C515.547 94.358 515.234 95.233 514.609 96.0455C514.047 96.7955 513.172 97.1705 511.984 97.1705C510.484 97.233 508.984 97.233 507.484 97.1705C506.047 97.0455 504.609 96.9205 503.172 96.7955C503.234 101.733 503.141 106.67 502.891 111.608C502.703 116.545 502.203 121.452 501.391 126.327C501.266 127.389 500.703 128.17 499.703 128.67C498.703 129.17 497.734 129.264 496.797 128.952C495.734 128.639 494.984 128.045 494.547 127.17C494.172 126.358 494.078 125.42 494.266 124.358C495.016 119.608 495.422 114.858 495.484 110.108C495.609 105.358 495.609 100.577 495.484 95.7642C493.109 95.3892 490.703 95.0142 488.266 94.6392C485.828 94.2017 483.422 93.8267 481.047 93.5142C479.984 93.3892 479.234 92.8267 478.797 91.8267C478.297 90.7642 478.172 89.7955 478.422 88.9205C478.734 87.858 479.328 87.1392 480.203 86.7642C481.078 86.3267 482.016 86.1705 483.016 86.2955C485.078 86.608 487.141 86.9517 489.203 87.3267C491.266 87.6392 493.359 87.9517 495.484 88.2642C495.422 87.9517 495.391 87.483 495.391 86.858C495.391 81.233 495.359 75.6705 495.297 70.1705C495.297 64.6705 495.578 59.108 496.141 53.483C496.266 52.483 496.641 51.608 497.266 50.858C497.953 50.108 498.828 49.733 499.891 49.733C500.828 49.733 501.703 50.108 502.516 50.858C503.391 51.608 503.766 52.483 503.641 53.483C503.016 59.483 502.703 65.4517 502.703 71.3892C502.766 77.2642 502.859 83.233 502.984 89.2955C504.484 89.4205 505.984 89.5455 507.484 89.6705C508.984 89.733 510.484 89.7642 511.984 89.7642Z" fill="black"/>
<path d="M526.609 48.8892C527.734 48.8892 528.609 49.2642 529.234 50.0142C529.859 50.7642 530.234 51.6392 530.359 52.6392C530.984 58.5767 531.328 64.5142 531.391 70.4517C531.453 76.3892 531.359 82.3267 531.109 88.2642C530.922 94.2017 530.609 100.139 530.172 106.077C529.734 112.014 529.297 117.92 528.859 123.795C528.734 124.858 528.328 125.733 527.641 126.42C527.016 127.17 526.172 127.545 525.109 127.545C524.172 127.545 523.297 127.17 522.484 126.42C521.672 125.733 521.297 124.858 521.359 123.795C521.797 117.92 522.234 112.014 522.672 106.077C523.172 100.139 523.516 94.2017 523.703 88.2642C523.953 82.3267 524.047 76.3892 523.984 70.4517C523.922 64.5142 523.578 58.5767 522.953 52.6392C522.828 51.6392 523.172 50.7642 523.984 50.0142C524.797 49.2642 525.672 48.8892 526.609 48.8892Z" fill="black"/>
<path d="M543.766 86.108C544.953 84.483 546.359 83.0455 547.984 81.7955C549.672 80.5455 551.453 79.5767 553.328 78.8892C555.203 78.1392 557.141 77.7642 559.141 77.7642C561.141 77.7017 563.141 78.0767 565.141 78.8892C567.078 79.6392 568.828 80.6705 570.391 81.983C571.953 83.233 573.172 84.858 574.047 86.858C574.734 88.358 575.141 89.983 575.266 91.733C575.391 93.483 574.922 95.0767 573.859 96.5142C572.922 97.8267 571.766 98.8267 570.391 99.5142C569.078 100.202 567.641 100.702 566.078 101.014C564.578 101.327 563.016 101.483 561.391 101.483C559.828 101.483 558.328 101.452 556.891 101.389C555.266 101.327 553.641 101.202 552.016 101.014C550.453 100.827 548.859 100.639 547.234 100.452C547.734 103.264 548.734 105.764 550.234 107.952C551.734 110.139 553.766 111.795 556.328 112.92C557.016 113.17 557.547 113.358 557.922 113.483C558.109 113.545 558.266 113.608 558.391 113.67C558.578 113.67 558.766 113.67 558.953 113.67C559.453 113.733 559.859 113.795 560.172 113.858C560.547 113.858 560.891 113.827 561.203 113.764C561.641 113.702 561.922 113.67 562.047 113.67C562.234 113.608 562.422 113.545 562.609 113.483C563.297 113.295 563.891 113.077 564.391 112.827C564.953 112.577 565.609 112.17 566.359 111.608C566.734 111.295 567.234 110.827 567.859 110.202C568.484 109.577 569.016 109.014 569.453 108.514C570.078 107.639 570.828 107.045 571.703 106.733C572.641 106.42 573.578 106.545 574.516 107.108C575.328 107.608 575.891 108.389 576.203 109.452C576.578 110.452 576.453 111.389 575.828 112.264C574.016 114.702 571.859 116.795 569.359 118.545C566.922 120.233 564.109 121.139 560.922 121.264C558.359 121.389 555.891 120.952 553.516 119.952C551.141 118.889 549.047 117.483 547.234 115.733C544.984 113.545 543.203 111.014 541.891 108.139C540.578 105.264 539.859 102.327 539.734 99.3267C539.172 98.8892 538.734 98.358 538.422 97.733C538.172 97.0455 538.078 96.358 538.141 95.6705C538.266 94.983 538.516 94.358 538.891 93.7955C539.266 93.1705 539.828 92.7642 540.578 92.5767C541.266 90.2642 542.328 88.108 543.766 86.108ZM566.266 88.358C565.578 87.483 564.516 86.7017 563.078 86.0142C561.891 85.5142 560.484 85.2642 558.859 85.2642C557.297 85.2642 555.953 85.5455 554.828 86.108C553.391 86.7955 552.109 87.7642 550.984 89.0142C549.859 90.2017 548.953 91.5455 548.266 93.0455C549.766 93.233 551.266 93.4205 552.766 93.608C554.266 93.7955 555.766 93.9205 557.266 93.983C558.078 93.983 558.891 93.983 559.703 93.983C560.516 93.983 561.328 93.9517 562.141 93.8892C562.391 93.8892 562.609 93.8892 562.797 93.8892C563.047 93.8267 563.297 93.7955 563.547 93.7955C564.109 93.6705 564.516 93.608 564.766 93.608C565.078 93.5455 565.391 93.4517 565.703 93.3267C565.953 93.2642 566.266 93.1705 566.641 93.0455C566.953 92.9205 567.141 92.8267 567.203 92.7642C567.266 92.7017 567.359 92.6392 567.484 92.5767L567.766 91.4517C567.641 91.2017 567.547 90.983 567.484 90.7955C567.484 90.5455 567.422 90.3267 567.297 90.1392C567.234 89.9517 567.078 89.6705 566.828 89.2955C566.641 88.9205 566.453 88.608 566.266 88.358Z" fill="black"/>
<path d="M616.516 123.233C615.516 123.233 614.703 122.983 614.078 122.483C613.516 121.92 613.141 121.295 612.953 120.608C612.766 119.858 612.766 119.108 612.953 118.358C613.203 117.608 613.641 116.983 614.266 116.483C614.766 114.358 614.891 112.233 614.641 110.108C614.391 107.92 614.141 105.764 613.891 103.639C613.578 101.014 613.484 98.4517 613.609 95.9517C613.734 93.3892 613.984 90.7955 614.359 88.1705C614.734 85.5455 615.141 82.9517 615.578 80.3892C616.016 77.7642 616.391 75.1392 616.703 72.5142C617.016 69.7017 617.266 66.9205 617.453 64.1705C617.703 61.4205 617.891 58.6392 618.016 55.8267C618.016 54.6392 618.422 53.733 619.234 53.108C620.047 52.483 620.922 52.1705 621.859 52.1705C622.797 52.1705 623.641 52.483 624.391 53.108C625.141 53.733 625.484 54.6392 625.422 55.8267C625.297 58.7642 625.109 61.6705 624.859 64.5455C624.672 67.4205 624.422 70.358 624.109 73.358C623.797 76.108 623.391 78.7955 622.891 81.4205C622.453 84.0455 622.047 86.733 621.672 89.483C621.297 92.108 621.109 94.7017 621.109 97.2642C621.109 99.7642 621.266 102.327 621.578 104.952C621.766 106.764 621.922 108.577 622.047 110.389C622.234 112.202 622.203 114.014 621.953 115.827C626.641 115.952 631.328 116.202 636.016 116.577C640.703 116.889 645.391 117.139 650.078 117.327C651.266 117.389 652.141 117.827 652.703 118.639C653.328 119.452 653.641 120.327 653.641 121.264C653.641 122.202 653.328 123.045 652.703 123.795C652.141 124.545 651.266 124.889 650.078 124.827C644.391 124.577 638.766 124.233 633.203 123.795C627.703 123.42 622.141 123.233 616.516 123.233Z" fill="black"/>
<path d="M656.828 86.108C658.016 84.483 659.422 83.0455 661.047 81.7955C662.734 80.5455 664.516 79.5767 666.391 78.8892C668.266 78.1392 670.203 77.7642 672.203 77.7642C674.203 77.7017 676.203 78.0767 678.203 78.8892C680.141 79.6392 681.891 80.6705 683.453 81.983C685.016 83.233 686.234 84.858 687.109 86.858C687.797 88.358 688.203 89.983 688.328 91.733C688.453 93.483 687.984 95.0767 686.922 96.5142C685.984 97.8267 684.828 98.8267 683.453 99.5142C682.141 100.202 680.703 100.702 679.141 101.014C677.641 101.327 676.078 101.483 674.453 101.483C672.891 101.483 671.391 101.452 669.953 101.389C668.328 101.327 666.703 101.202 665.078 101.014C663.516 100.827 661.922 100.639 660.297 100.452C660.797 103.264 661.797 105.764 663.297 107.952C664.797 110.139 666.828 111.795 669.391 112.92C670.078 113.17 670.609 113.358 670.984 113.483C671.172 113.545 671.328 113.608 671.453 113.67C671.641 113.67 671.828 113.67 672.016 113.67C672.516 113.733 672.922 113.795 673.234 113.858C673.609 113.858 673.953 113.827 674.266 113.764C674.703 113.702 674.984 113.67 675.109 113.67C675.297 113.608 675.484 113.545 675.672 113.483C676.359 113.295 676.953 113.077 677.453 112.827C678.016 112.577 678.672 112.17 679.422 111.608C679.797 111.295 680.297 110.827 680.922 110.202C681.547 109.577 682.078 109.014 682.516 108.514C683.141 107.639 683.891 107.045 684.766 106.733C685.703 106.42 686.641 106.545 687.578 107.108C688.391 107.608 688.953 108.389 689.266 109.452C689.641 110.452 689.516 111.389 688.891 112.264C687.078 114.702 684.922 116.795 682.422 118.545C679.984 120.233 677.172 121.139 673.984 121.264C671.422 121.389 668.953 120.952 666.578 119.952C664.203 118.889 662.109 117.483 660.297 115.733C658.047 113.545 656.266 111.014 654.953 108.139C653.641 105.264 652.922 102.327 652.797 99.3267C652.234 98.8892 651.797 98.358 651.484 97.733C651.234 97.0455 651.141 96.358 651.203 95.6705C651.328 94.983 651.578 94.358 651.953 93.7955C652.328 93.1705 652.891 92.7642 653.641 92.5767C654.328 90.2642 655.391 88.108 656.828 86.108ZM679.328 88.358C678.641 87.483 677.578 86.7017 676.141 86.0142C674.953 85.5142 673.547 85.2642 671.922 85.2642C670.359 85.2642 669.016 85.5455 667.891 86.108C666.453 86.7955 665.172 87.7642 664.047 89.0142C662.922 90.2017 662.016 91.5455 661.328 93.0455C662.828 93.233 664.328 93.4205 665.828 93.608C667.328 93.7955 668.828 93.9205 670.328 93.983C671.141 93.983 671.953 93.983 672.766 93.983C673.578 93.983 674.391 93.9517 675.203 93.8892C675.453 93.8892 675.672 93.8892 675.859 93.8892C676.109 93.8267 676.359 93.7955 676.609 93.7955C677.172 93.6705 677.578 93.608 677.828 93.608C678.141 93.5455 678.453 93.4517 678.766 93.3267C679.016 93.2642 679.328 93.1705 679.703 93.0455C680.016 92.9205 680.203 92.8267 680.266 92.7642C680.328 92.7017 680.422 92.6392 680.547 92.5767L680.828 91.4517C680.703 91.2017 680.609 90.983 680.547 90.7955C680.547 90.5455 680.484 90.3267 680.359 90.1392C680.297 89.9517 680.141 89.6705 679.891 89.2955C679.703 88.9205 679.516 88.608 679.328 88.358Z" fill="black"/>
<path d="M699.672 101.67C698.047 100.483 696.891 99.0142 696.203 97.2642C695.516 95.4517 695.484 93.5455 696.109 91.5455C696.734 89.733 697.703 88.108 699.016 86.6705C700.328 85.233 701.828 84.0767 703.516 83.2017C705.391 82.2017 707.391 81.4205 709.516 80.858C711.641 80.2955 713.797 79.983 715.984 79.9205C718.172 79.858 720.328 80.0767 722.453 80.5767C724.641 81.0142 726.703 81.733 728.641 82.733C729.703 83.2955 730.297 84.0455 730.422 84.983C730.547 85.9205 730.359 86.7955 729.859 87.608C729.422 88.4205 728.734 89.0142 727.797 89.3892C726.859 89.7642 725.859 89.6705 724.797 89.108C723.297 88.2955 721.609 87.7642 719.734 87.5142C717.859 87.2642 715.953 87.2642 714.016 87.5142C712.141 87.7017 710.359 88.1705 708.672 88.9205C706.984 89.6705 705.578 90.6392 704.453 91.8267C704.141 92.1392 703.922 92.358 703.797 92.483C703.734 92.608 703.609 92.8892 703.422 93.3267L703.234 94.358C703.422 94.9205 703.578 95.2642 703.703 95.3892C704.953 96.2017 706.234 96.733 707.547 96.983C708.922 97.1705 710.297 97.2955 711.672 97.358C713.609 97.483 715.578 97.608 717.578 97.733C719.641 97.7955 721.609 98.0455 723.484 98.483C725.422 98.9205 727.203 99.6392 728.828 100.639C730.453 101.639 731.828 103.108 732.953 105.045C734.203 107.233 734.766 109.514 734.641 111.889C734.578 114.202 733.672 116.295 731.922 118.17C730.172 120.045 728.141 121.358 725.828 122.108C723.516 122.795 721.172 123.295 718.797 123.608C716.672 123.858 714.453 123.92 712.141 123.795C709.891 123.67 707.703 123.295 705.578 122.67C703.516 122.108 701.578 121.233 699.766 120.045C697.953 118.795 696.453 117.17 695.266 115.17C694.703 114.17 694.609 113.233 694.984 112.358C695.359 111.42 695.922 110.733 696.672 110.295C697.484 109.795 698.359 109.608 699.297 109.733C700.297 109.858 701.109 110.42 701.734 111.42C702.609 112.858 703.828 113.952 705.391 114.702C706.953 115.452 708.641 115.983 710.453 116.295C712.328 116.545 714.203 116.608 716.078 116.483C717.953 116.295 719.641 116.045 721.141 115.733C721.953 115.545 722.766 115.295 723.578 114.983C724.453 114.608 725.172 114.17 725.734 113.67C726.359 113.17 726.797 112.608 727.047 111.983C727.297 111.295 727.266 110.545 726.953 109.733C726.328 108.17 725.266 107.045 723.766 106.358C722.328 105.67 720.797 105.264 719.172 105.139C717.547 105.014 715.891 104.952 714.203 104.952C712.516 104.952 710.828 104.889 709.141 104.764C707.453 104.577 705.797 104.264 704.172 103.827C702.547 103.389 701.047 102.67 699.672 101.67Z" fill="black"/>
<path d="M745.328 101.67C743.703 100.483 742.547 99.0142 741.859 97.2642C741.172 95.4517 741.141 93.5455 741.766 91.5455C742.391 89.733 743.359 88.108 744.672 86.6705C745.984 85.233 747.484 84.0767 749.172 83.2017C751.047 82.2017 753.047 81.4205 755.172 80.858C757.297 80.2955 759.453 79.983 761.641 79.9205C763.828 79.858 765.984 80.0767 768.109 80.5767C770.297 81.0142 772.359 81.733 774.297 82.733C775.359 83.2955 775.953 84.0455 776.078 84.983C776.203 85.9205 776.016 86.7955 775.516 87.608C775.078 88.4205 774.391 89.0142 773.453 89.3892C772.516 89.7642 771.516 89.6705 770.453 89.108C768.953 88.2955 767.266 87.7642 765.391 87.5142C763.516 87.2642 761.609 87.2642 759.672 87.5142C757.797 87.7017 756.016 88.1705 754.328 88.9205C752.641 89.6705 751.234 90.6392 750.109 91.8267C749.797 92.1392 749.578 92.358 749.453 92.483C749.391 92.608 749.266 92.8892 749.078 93.3267L748.891 94.358C749.078 94.9205 749.234 95.2642 749.359 95.3892C750.609 96.2017 751.891 96.733 753.203 96.983C754.578 97.1705 755.953 97.2955 757.328 97.358C759.266 97.483 761.234 97.608 763.234 97.733C765.297 97.7955 767.266 98.0455 769.141 98.483C771.078 98.9205 772.859 99.6392 774.484 100.639C776.109 101.639 777.484 103.108 778.609 105.045C779.859 107.233 780.422 109.514 780.297 111.889C780.234 114.202 779.328 116.295 777.578 118.17C775.828 120.045 773.797 121.358 771.484 122.108C769.172 122.795 766.828 123.295 764.453 123.608C762.328 123.858 760.109 123.92 757.797 123.795C755.547 123.67 753.359 123.295 751.234 122.67C749.172 122.108 747.234 121.233 745.422 120.045C743.609 118.795 742.109 117.17 740.922 115.17C740.359 114.17 740.266 113.233 740.641 112.358C741.016 111.42 741.578 110.733 742.328 110.295C743.141 109.795 744.016 109.608 744.953 109.733C745.953 109.858 746.766 110.42 747.391 111.42C748.266 112.858 749.484 113.952 751.047 114.702C752.609 115.452 754.297 115.983 756.109 116.295C757.984 116.545 759.859 116.608 761.734 116.483C763.609 116.295 765.297 116.045 766.797 115.733C767.609 115.545 768.422 115.295 769.234 114.983C770.109 114.608 770.828 114.17 771.391 113.67C772.016 113.17 772.453 112.608 772.703 111.983C772.953 111.295 772.922 110.545 772.609 109.733C771.984 108.17 770.922 107.045 769.422 106.358C767.984 105.67 766.453 105.264 764.828 105.139C763.203 105.014 761.547 104.952 759.859 104.952C758.172 104.952 756.484 104.889 754.797 104.764C753.109 104.577 751.453 104.264 749.828 103.827C748.203 103.389 746.703 102.67 745.328 101.67Z" fill="black"/>
<path d="M810.297 79.2642C812.297 79.0142 814.391 78.9517 816.578 79.0767C818.766 79.1392 820.859 79.5142 822.859 80.2017C824.859 80.8267 826.672 81.7955 828.297 83.108C829.922 84.4205 831.172 86.1392 832.047 88.2642C832.672 89.7642 832.984 91.2955 832.984 92.858C833.047 94.358 832.828 95.8267 832.328 97.2642C831.891 98.6392 831.203 99.983 830.266 101.295C829.391 102.545 828.359 103.702 827.172 104.764C824.609 107.077 821.797 109.045 818.734 110.67C815.672 112.295 812.453 113.545 809.078 114.42C807.641 114.795 806.141 115.139 804.578 115.452C803.078 115.702 801.547 115.827 799.984 115.827C798.422 115.827 796.891 115.67 795.391 115.358C793.891 114.983 792.484 114.389 791.172 113.577C790.234 113.014 789.672 112.264 789.484 111.327C789.109 110.264 788.703 109.264 788.266 108.327C787.828 107.389 787.391 106.42 786.953 105.42C786.578 104.42 786.266 103.42 786.016 102.42C785.766 101.42 785.641 100.389 785.641 99.3267C785.641 97.2017 786.078 95.2017 786.953 93.3267C787.891 91.3892 789.141 89.7017 790.703 88.2642C793.328 85.7642 796.359 83.7642 799.797 82.2642C803.234 80.7642 806.734 79.7642 810.297 79.2642ZM820.891 87.3267C819.203 86.7017 817.391 86.3892 815.453 86.3892C813.391 86.3267 811.328 86.5455 809.266 87.0455C807.203 87.483 805.234 88.108 803.359 88.9205C801.609 89.608 799.797 90.5767 797.922 91.8267C796.109 93.0142 794.766 94.483 793.891 96.233C793.391 97.1705 793.141 98.1392 793.141 99.1392C793.203 100.077 793.359 101.045 793.609 102.045C793.922 102.983 794.297 103.952 794.734 104.952C795.234 105.889 795.672 106.827 796.047 107.764C797.047 108.014 797.672 108.139 797.922 108.139C798.047 108.202 798.203 108.233 798.391 108.233C798.578 108.233 798.734 108.233 798.859 108.233C800.109 108.358 801.234 108.327 802.234 108.139C802.922 108.139 803.797 108.014 804.859 107.764C806.484 107.452 808.047 107.045 809.547 106.545C811.047 105.983 812.422 105.389 813.672 104.764C815.109 104.077 816.516 103.327 817.891 102.514C819.266 101.702 820.422 100.858 821.359 99.983C821.984 99.4205 822.578 98.8267 823.141 98.2017C823.453 97.8892 823.672 97.6392 823.797 97.4517C824.109 97.0142 824.359 96.7017 824.547 96.5142C824.734 96.2642 824.891 95.983 825.016 95.6705C825.266 95.233 825.391 94.8892 825.391 94.6392C825.453 94.5142 825.484 94.358 825.484 94.1705C825.547 93.983 825.609 93.8267 825.672 93.7017V92.6705C825.609 92.4205 825.578 92.233 825.578 92.108C825.578 91.983 825.547 91.858 825.484 91.733C825.297 91.2955 825.109 90.983 824.922 90.7955C824.797 90.5455 824.641 90.2955 824.453 90.0455C824.516 90.108 824.422 90.0142 824.172 89.7642C823.984 89.5142 823.859 89.358 823.797 89.2955L823.047 88.5455C822.734 88.358 822.391 88.1392 822.016 87.8892C821.641 87.6392 821.266 87.4517 820.891 87.3267Z" fill="black"/>
<path d="M839.359 113.483C839.359 110.795 839.547 108.077 839.922 105.327C840.359 102.014 840.797 98.733 841.234 95.483C841.672 92.1705 841.859 88.8267 841.797 85.4517C841.797 84.2642 842.172 83.358 842.922 82.733C843.672 82.108 844.516 81.7955 845.453 81.7955C846.391 81.7955 847.266 82.108 848.078 82.733C848.891 83.358 849.297 84.2642 849.297 85.4517C851.734 85.2642 854.047 85.1705 856.234 85.1705C858.734 85.233 860.859 85.9517 862.609 87.3267C864.359 88.7017 865.672 90.5455 866.547 92.858C867.297 94.983 867.734 97.1705 867.859 99.4205C867.984 101.67 868.078 103.92 868.141 106.17C868.203 109.358 868.297 112.545 868.422 115.733C868.547 118.858 868.609 122.014 868.609 125.202C868.609 126.452 868.203 127.358 867.391 127.92C866.641 128.545 865.797 128.858 864.859 128.858C863.984 128.858 863.141 128.545 862.328 127.92C861.578 127.358 861.203 126.452 861.203 125.202C861.203 122.202 861.141 119.264 861.016 116.389C860.953 113.514 860.859 110.577 860.734 107.577C860.609 105.952 860.547 104.295 860.547 102.608C860.609 100.858 860.484 99.2642 860.172 97.8267C859.984 96.9517 859.797 96.2017 859.609 95.5767C859.422 94.8892 859.078 94.233 858.578 93.608C858.453 93.358 858.172 93.1392 857.734 92.9517C857.359 92.7642 857.016 92.6705 856.703 92.6705C855.766 92.6705 854.891 92.733 854.078 92.858C853.266 92.983 852.422 93.1705 851.547 93.4205C851.172 93.5455 850.797 93.6705 850.422 93.7955C850.047 93.9205 849.703 94.0767 849.391 94.2642C848.766 96.5142 848.297 98.6705 847.984 100.733C847.734 102.733 847.484 104.764 847.234 106.827C847.047 108.327 846.922 109.858 846.859 111.42C846.859 112.92 846.797 114.42 846.672 115.92C846.609 117.42 846.422 118.92 846.109 120.42C845.859 121.92 845.391 123.358 844.703 124.733C844.141 125.795 843.391 126.389 842.453 126.514C841.516 126.702 840.641 126.545 839.828 126.045C839.078 125.608 838.484 124.92 838.047 123.983C837.672 123.045 837.734 122.045 838.234 120.983C838.797 119.858 839.109 118.639 839.172 117.327C839.234 116.014 839.297 114.733 839.359 113.483Z" fill="black"/>
<path d="M881.266 101.67C879.641 100.483 878.484 99.0142 877.797 97.2642C877.109 95.4517 877.078 93.5455 877.703 91.5455C878.328 89.733 879.297 88.108 880.609 86.6705C881.922 85.233 883.422 84.0767 885.109 83.2017C886.984 82.2017 888.984 81.4205 891.109 80.858C893.234 80.2955 895.391 79.983 897.578 79.9205C899.766 79.858 901.922 80.0767 904.047 80.5767C906.234 81.0142 908.297 81.733 910.234 82.733C911.297 83.2955 911.891 84.0455 912.016 84.983C912.141 85.9205 911.953 86.7955 911.453 87.608C911.016 88.4205 910.328 89.0142 909.391 89.3892C908.453 89.7642 907.453 89.6705 906.391 89.108C904.891 88.2955 903.203 87.7642 901.328 87.5142C899.453 87.2642 897.547 87.2642 895.609 87.5142C893.734 87.7017 891.953 88.1705 890.266 88.9205C888.578 89.6705 887.172 90.6392 886.047 91.8267C885.734 92.1392 885.516 92.358 885.391 92.483C885.328 92.608 885.203 92.8892 885.016 93.3267L884.828 94.358C885.016 94.9205 885.172 95.2642 885.297 95.3892C886.547 96.2017 887.828 96.733 889.141 96.983C890.516 97.1705 891.891 97.2955 893.266 97.358C895.203 97.483 897.172 97.608 899.172 97.733C901.234 97.7955 903.203 98.0455 905.078 98.483C907.016 98.9205 908.797 99.6392 910.422 100.639C912.047 101.639 913.422 103.108 914.547 105.045C915.797 107.233 916.359 109.514 916.234 111.889C916.172 114.202 915.266 116.295 913.516 118.17C911.766 120.045 909.734 121.358 907.422 122.108C905.109 122.795 902.766 123.295 900.391 123.608C898.266 123.858 896.047 123.92 893.734 123.795C891.484 123.67 889.297 123.295 887.172 122.67C885.109 122.108 883.172 121.233 881.359 120.045C879.547 118.795 878.047 117.17 876.859 115.17C876.297 114.17 876.203 113.233 876.578 112.358C876.953 111.42 877.516 110.733 878.266 110.295C879.078 109.795 879.953 109.608 880.891 109.733C881.891 109.858 882.703 110.42 883.328 111.42C884.203 112.858 885.422 113.952 886.984 114.702C888.547 115.452 890.234 115.983 892.047 116.295C893.922 116.545 895.797 116.608 897.672 116.483C899.547 116.295 901.234 116.045 902.734 115.733C903.547 115.545 904.359 115.295 905.172 114.983C906.047 114.608 906.766 114.17 907.328 113.67C907.953 113.17 908.391 112.608 908.641 111.983C908.891 111.295 908.859 110.545 908.547 109.733C907.922 108.17 906.859 107.045 905.359 106.358C903.922 105.67 902.391 105.264 900.766 105.139C899.141 105.014 897.484 104.952 895.797 104.952C894.109 104.952 892.422 104.889 890.734 104.764C889.047 104.577 887.391 104.264 885.766 103.827C884.141 103.389 882.641 102.67 881.266 101.67Z" fill="black"/>
</svg>
