<svg width="152" height="194" viewBox="0 0 152 194" fill="none" xmlns="http://www.w3.org/2000/svg">
<path fill-rule="evenodd" clip-rule="evenodd" d="M42.0307 71.3778C36.4114 86.1428 38.5028 108.713 60.1415 138.722C61.9806 141.272 61.411 144.836 58.8693 146.681C56.3277 148.527 52.7764 147.955 50.9373 145.405C28.0534 113.669 23.9166 87.019 31.4174 67.3106C38.8843 47.6913 57.2512 36.7144 75.4807 35.1853C93.7572 33.6522 113.027 41.5803 121.585 60.9882C130.016 80.1079 127.158 108.446 106.152 146.084C104.619 148.831 101.157 149.81 98.42 148.272C95.6827 146.734 94.7064 143.26 96.2393 140.514C116.538 104.143 117.494 79.885 111.196 65.601C105.024 51.6053 91.0214 45.3215 76.4271 46.5457C61.7857 47.7739 47.684 56.5237 42.0307 71.3778Z" fill="black"/>
<path fill-rule="evenodd" clip-rule="evenodd" d="M59.8761 159.667C61.5454 156.994 65.0388 156.197 67.6789 157.887C72.168 160.762 75.7524 162.208 79.081 162.492C82.2848 162.766 85.8732 162.012 90.4777 159.272C93.1706 157.669 96.6367 158.58 98.2193 161.307C99.802 164.034 98.902 167.544 96.2091 169.147C90.0586 172.808 84.1561 174.421 78.1314 173.907C72.2316 173.403 66.8499 170.909 61.6339 167.569C58.9938 165.879 58.2068 162.341 59.8761 159.667Z" fill="black"/>
<path fill-rule="evenodd" clip-rule="evenodd" d="M57.4926 178.869C59.6202 176.531 63.2367 176.364 65.5703 178.495C71.6697 184.066 81.1373 183.411 91.1764 179.431C94.1127 178.267 97.4351 179.708 98.5972 182.649C99.7593 185.59 98.321 188.918 95.3847 190.083C84.6266 194.348 69.1914 197.304 57.8656 186.96C55.532 184.829 55.365 181.206 57.4926 178.869Z" fill="black"/>
<path opacity="0.503384" fill-rule="evenodd" clip-rule="evenodd" d="M82.6501 142.43C82.3718 143.277 81.9591 144.378 81.3322 145.351C79.6175 148.01 76.0355 148.799 73.3316 147.113C70.6792 145.458 69.8571 142.036 71.4452 139.396C71.4663 139.345 71.5268 139.199 71.6177 138.922C71.7817 138.423 71.9762 137.714 72.1886 136.784C72.6121 134.93 73.0472 132.461 73.4455 129.558C73.9768 125.686 74.4249 121.171 74.6985 116.519C72.7971 117.359 70.4979 117.159 68.7433 115.806C67.0209 114.479 66.269 112.384 66.596 110.4C62.4341 106.814 60.0102 101.542 59.2726 96.8459C58.6611 92.9521 59.0144 88.6359 60.9886 84.8952C63.0674 80.9561 66.7905 78.0042 71.9338 77.1425L71.9347 77.1423C76.1261 76.4408 79.4017 78.4289 81.4193 81.003C82.2462 82.0579 82.9131 83.2551 83.4574 84.513C84.8078 83.4533 86.2707 82.6048 87.8506 82.1198C90.7651 81.2249 93.9211 81.6623 96.3638 83.7778C98.4704 85.6022 99.3644 88.0915 99.7329 90.0832C100.122 92.184 100.067 94.4459 99.692 96.6307C98.9485 100.959 96.7878 105.849 92.8118 109.504C91.0041 111.166 88.8757 112.517 86.4563 113.431C86.216 119.679 85.6482 125.892 84.9359 131.083C84.5097 134.19 84.0217 137.005 83.5012 139.284C83.2416 140.421 82.9589 141.491 82.6501 142.43ZM86.3523 99.4715C86.9668 98.5707 87.4536 97.568 87.7994 96.5418C87.2786 97.2377 86.7852 97.973 86.3036 98.7512C86.3207 98.9904 86.3369 99.2305 86.3523 99.4715ZM88.2288 91.7608C88.2293 91.7602 88.2345 91.7708 88.243 91.7942C88.2325 91.7731 88.2283 91.7614 88.2288 91.7608ZM74.4277 96.2533C74.2255 94.5628 73.9662 93.0277 73.646 91.689C73.316 90.3089 72.9715 89.3611 72.6853 88.7475C72.0113 89.0738 71.5922 89.557 71.2792 90.15C70.7079 91.2326 70.3962 92.9711 70.7312 95.1046C71.0239 96.9678 71.6779 98.5801 72.5398 99.8675C72.6496 99.6553 72.7605 99.4407 72.8727 99.2237C73.0395 98.9008 73.2092 98.5725 73.3824 98.2384C73.7166 97.5941 74.0634 96.9302 74.4277 96.2533Z" fill="black"/>
<path opacity="0.503384" fill-rule="evenodd" clip-rule="evenodd" d="M90.3042 0.089141C93.4025 0.637546 95.4645 3.56544 94.9098 6.62877C94.6567 8.02662 94.5675 9.40477 94.4548 11.1443C94.4294 11.5364 94.4028 11.9469 94.3729 12.3802C94.2217 14.5686 93.9844 17.2207 93.1664 19.9596C92.2749 22.9442 89.1051 24.6492 86.0865 23.7678C83.0678 22.8864 81.3434 19.7524 82.2348 16.7678C82.677 15.2875 82.8583 13.6805 83.0011 11.6123C83.0225 11.3029 83.0432 10.9758 83.0648 10.6342C83.176 8.87603 83.3114 6.73347 83.69 4.64282C84.2446 1.57949 87.2059 -0.459265 90.3042 0.089141Z" fill="black"/>
<path opacity="0.503384" fill-rule="evenodd" clip-rule="evenodd" d="M29.7672 16.8334C32.5194 15.2259 36.1407 16.014 37.8556 18.5938C38.5324 19.6119 39.2069 20.7162 39.8113 21.7055C40.0489 22.0946 40.2757 22.4659 40.4875 22.8072C41.2994 24.1155 42.0247 25.21 42.796 26.1575C44.7631 28.574 44.2679 32.0276 41.6899 33.8715C39.1118 35.7153 35.4273 35.2511 33.4602 32.8346C32.2323 31.3262 31.2119 29.7518 30.3369 28.3419C30.0348 27.8551 29.7583 27.4023 29.4949 26.9708C28.9416 26.0646 28.4455 25.2521 27.8891 24.415C26.1741 21.8353 27.015 18.4408 29.7672 16.8334Z" fill="black"/>
<path opacity="0.503384" fill-rule="evenodd" clip-rule="evenodd" d="M0.893869 71.6298C2.59005 68.987 6.12924 68.2057 8.79888 69.8849C10.8715 71.1885 13.2543 72.1604 15.8143 72.8692C18.8603 73.7126 20.6388 76.8409 19.7869 79.8563C18.9349 82.8717 15.7749 84.6324 12.7289 83.789C9.36144 82.8565 5.88843 81.4883 2.65648 79.4555C-0.0131598 77.7763 -0.802308 74.2726 0.893869 71.6298Z" fill="black"/>
<path opacity="0.503384" fill-rule="evenodd" clip-rule="evenodd" d="M139.101 32.6247C140.795 35.2751 140.026 38.8008 137.383 40.4997C134.888 42.1038 132.194 43.8174 129.352 45.3323C126.58 46.8096 123.139 45.7535 121.666 42.9735C120.193 40.1936 121.246 36.7424 124.018 35.2651C126.403 33.9941 128.741 32.5142 131.248 30.902C133.891 29.2031 137.407 29.9744 139.101 32.6247Z" fill="black"/>
<path opacity="0.503384" fill-rule="evenodd" clip-rule="evenodd" d="M151.876 88.2851C152.535 91.1961 150.51 94.0487 147.354 94.6565C147.012 94.7224 146.653 94.7937 146.281 94.8679C143.011 95.5186 138.636 96.3894 134.047 95.8101C130.852 95.4067 128.617 92.6913 129.055 89.745C129.492 86.7987 132.436 84.7372 135.631 85.1405C138.081 85.4499 140.433 84.9938 144.055 84.2912C144.351 84.2339 144.655 84.175 144.968 84.1148C148.124 83.5069 151.217 85.3741 151.876 88.2851Z" fill="black"/>
</svg>
