<svg width="172" height="194" viewBox="0 0 172 194" fill="none" xmlns="http://www.w3.org/2000/svg">
<path d="M46.6022 11.5434C-8.70038 -11.071 19.4581 39.5774 18.2183 81.0104C17.7248 97.4434 1.83839 151.703 5.56599 159.479C29.3952 209.154 151.34 186.974 158.602 146.616C159.24 143.061 153.036 128.407 152.739 123.459C151.728 106.591 152.871 87.9894 155.825 71.5744C157.946 59.7754 172.463 24.1294 164.771 20.1214C157.922 16.5514 128.381 10.6514 123.427 20.9794C115.943 36.5844 123.12 118.218 123.12 140.184M45.3686 18.8324C45.3329 56.9244 33.0534 103.733 42.5918 140.184M7.7276 144.47C10.7545 125.253 54.8767 117.563 37.3462 150.044C33.5081 157.157 18.1717 161.158 22.2287 148.759M152.429 139.326C145.133 106.624 108.983 141.573 127.748 156.478C134.767 162.052 147.969 149.623 136.076 143.611M43.2094 30.4114C62.3598 43.5334 92.7175 59.6374 113.865 46.2794M87.0212 79.2944C78.7738 53.5944 72.7602 75.9304 63.2621 78.8634C60.0408 79.8604 56.0413 76.3804 53.0814 78.4364C38.9259 88.2734 57.3509 107.426 64.1893 110.595C65.5284 111.216 67.0809 97.5294 70.9757 96.4464C81.5793 93.4984 83.9946 101.53 88.2532 82.2954M108.002 97.3044C100.113 95.7914 97.6085 107.343 91.6492 112.31C88.8142 114.674 84.7603 111.273 82.0836 113.595C60.5614 132.291 88.1485 160.913 108.619 132.463C110.665 129.616 114.126 136.052 116.64 127.32M103.991 69.4324C104.765 75.0244 104.094 87.5884 103.991 90.0154M111.086 78.0064C107.038 75.8414 102.728 77.5834 98.7436 78.0064M67.2726 140.337C65.2243 143.218 63.2109 145.821 61.1037 148.484M70.6685 149.769C67.1569 147.274 64.1404 143.701 61.4102 139.906" stroke="black" stroke-width="10" stroke-linecap="round" stroke-linejoin="round"/>
</svg>
