<svg width="200" height="194" viewBox="0 0 257 290" fill="none" xmlns="http://www.w3.org/2000/svg">
<path d="M49.3583 117.115C41.3233 118.156 38.4109 123.162 38.4109 131.106C38.4109 136.402 43.7183 140.778 54.3332 144.234C66.3186 226.962 190.334 226.962 197.794 137.569C207.581 131.335 212.474 126.833 212.474 124.06C212.474 118.966 210.694 115.375 201.471 112.264" stroke="black" stroke-width="16" stroke-linecap="round" stroke-linejoin="round"/>
<path d="M71.7837 88.4226C82.5964 69.9452 86.5727 51.4678 86.5727 51.4678C86.5727 51.4678 113.014 78.6189 186.829 88.4226" stroke="black" stroke-width="16" stroke-linecap="round" stroke-linejoin="round"/>
<path d="M139.113 162.424C132.075 164.134 125.171 168.5 119.765 162.424" stroke="black" stroke-width="16" stroke-linecap="round" stroke-linejoin="round"/>
<path d="M111.24 121.782C111.448 117.653 112.255 113.756 112.651 109.848" stroke="black" stroke-width="16" stroke-linecap="round" stroke-linejoin="round"/>
<path d="M143.512 120.788C143.94 116.502 143.321 112.155 142.985 107.859" stroke="black" stroke-width="16" stroke-linecap="round" stroke-linejoin="round"/>
<path d="M21.2508 238.741C-0.611294 152.242 31.2358 35.4553 65.7014 35.4553" stroke="black" stroke-width="16" stroke-linecap="round" stroke-linejoin="round"/>
<path d="M89 20.2918C249.58 -48.9295 247.339 194.828 232.913 238.741" stroke="black" stroke-width="16" stroke-linecap="round" stroke-linejoin="round"/>
<path d="M249 282C233.879 259.635 195.523 241.289 153.619 234.218C144.959 232.757 137.29 271.192 128.5 270.758C120.615 270.369 112.034 230.979 105.023 231.352C49.7908 234.285 20.9843 258.749 8 271.694" stroke="black" stroke-width="16" stroke-linecap="round" stroke-linejoin="round"/>
</svg>
