<svg width="201" height="194" viewBox="0 0 201 194" fill="none" xmlns="http://www.w3.org/2000/svg">
<path fill-rule="evenodd" clip-rule="evenodd" d="M22.7563 15.7693C22.7066 15.77 22.6416 15.7716 22.5598 15.7746C22.2024 15.7879 21.689 15.8229 21.0481 15.8853C19.7699 16.0098 18.163 16.2259 16.5849 16.518C15.3297 16.7503 14.2142 17.0086 13.3435 17.2675C12.7671 19.9951 12.3689 24.2588 12.2505 29.983C12.1039 37.0713 12.3876 45.4966 12.8454 54.161C13.194 60.7577 13.6543 67.6003 14.0858 74.016C14.7592 84.0267 15.3626 92.9978 15.3626 98.373C15.3626 122.452 15.7666 146.28 18.082 169.886C18.4415 173.552 16.0149 176.842 12.662 177.235C9.309 177.628 6.29941 174.975 5.93985 171.31C3.55249 146.97 3.15092 122.562 3.15092 98.373C3.15092 93.4102 2.60788 85.392 1.96753 75.937C1.52742 69.4385 1.04135 62.2613 0.654022 54.931C0.190185 46.1526 -0.115862 37.3074 0.0418908 29.6811C0.19335 22.3591 0.772335 15.1577 2.55957 10.2971M22.8853 15.7695C22.8853 15.7695 22.884 15.7694 22.8814 15.7693ZM22.7563 15.7693C24.5367 16.0493 27.0127 16.1258 29.6442 16.1291C32.5839 16.1328 36.1787 16.0396 40.1614 15.8888C46.82 15.6368 54.7248 15.2171 62.7194 14.7926C64.2863 14.7094 65.8568 14.626 67.4219 14.5437C77.0155 14.039 86.4113 13.5735 93.8099 13.4114C97.5163 13.3302 100.633 13.3275 102.98 13.4252C104.158 13.4742 105.06 13.5453 105.703 13.6285C105.932 13.6581 106.093 13.6849 106.196 13.7041C106.361 13.8211 106.733 14.112 107.321 14.7353C108.13 15.5936 109.03 16.7346 110.052 18.124C110.555 18.8074 111.057 19.5086 111.581 20.2395L111.583 20.242C112.096 20.9585 112.633 21.7091 113.164 22.4287C114.184 23.8097 115.396 25.3791 116.672 26.6269C118.37 28.2893 119.913 29.7915 121.319 31.1594C125.916 35.633 129.037 38.6702 131.26 41.1748C134.016 44.2792 134.594 45.7175 134.847 47.0263C135.215 48.9348 135.077 51.424 134.609 57.5624C134.167 63.3487 133.564 71.3633 133.564 83.0291C133.564 86.7159 136.298 89.7047 139.67 89.7047C143.042 89.7047 145.776 86.7159 145.776 83.0291C145.776 71.9182 146.346 64.3358 146.778 58.6726C146.8 58.3824 146.822 58.0936 146.845 57.8063C147.227 52.8371 147.576 48.3151 146.796 44.2708C145.855 39.3931 143.471 35.7604 140.024 31.8771C137.461 28.9895 133.867 25.4932 129.156 20.9103C127.803 19.5937 126.357 18.1874 124.817 16.6801L124.816 16.6791C124.332 16.2054 123.643 15.3658 122.668 14.0442C122.202 13.4132 121.72 12.7398 121.196 12.0082L121.172 11.9748C120.664 11.2663 120.12 10.5065 119.566 9.7541C118.458 8.24801 117.183 6.59433 115.824 5.15313C114.53 3.77952 112.767 2.16886 110.614 1.23259C110.613 1.23221 110.612 1.23183 110.611 1.23146C109.413 0.710511 108.088 0.492453 107.136 0.369571C106.046 0.22872 104.79 0.139637 103.445 0.0836701C100.746 -0.0285742 97.3563 -0.020103 93.5652 0.0629402C85.969 0.229337 76.4063 0.704441 66.835 1.20796C65.2545 1.2911 63.6737 1.37503 62.1006 1.45855C54.1039 1.88308 46.3041 2.29716 39.7389 2.54568C35.8114 2.69434 32.3837 2.78136 29.6583 2.77793C26.7919 2.77433 25.1069 2.66613 24.4234 2.5422L24.4193 2.54146C23.547 2.38396 22.6077 2.41399 22.1456 2.43114C21.5003 2.45509 20.7529 2.51 19.9644 2.58681C18.384 2.74075 16.4581 3.00035 14.5466 3.35414C12.6761 3.70033 10.6164 4.17334 8.85912 4.80081C7.99726 5.10854 6.98048 5.53235 6.03165 6.12753C5.32419 6.5713 3.47337 7.81233 2.56012 10.2956" fill="black"/>
<path fill-rule="evenodd" clip-rule="evenodd" d="M143.428 158.533C144.544 155.423 143.377 151.823 140.616 150.212C137.641 148.476 133.942 149.705 132.354 152.958C131.415 154.882 131.262 156.985 131.216 158.184C131.16 159.621 131.234 161.182 131.348 162.674C131.52 164.917 131.83 167.529 132.125 170.002C132.217 170.776 132.307 171.536 132.391 172.267C132.702 174.974 132.932 177.324 132.992 179.178C132.534 179.215 132.033 179.251 131.487 179.288C128.299 179.501 123.894 179.692 118.62 179.858C108.087 180.19 94.2871 180.418 80.2718 180.541C66.261 180.664 52.0688 180.682 40.7601 180.594C29.2413 180.504 21.1757 180.304 19.0442 180.05C15.6919 179.651 12.6783 182.299 12.3132 185.964C11.9481 189.629 14.3697 192.924 17.7221 193.323C20.6339 193.67 29.5018 193.858 40.6733 193.945C52.055 194.033 66.3099 194.015 80.3698 193.892C94.4253 193.769 108.319 193.54 118.972 193.204C124.29 193.036 128.849 192.84 132.232 192.614C133.915 192.502 135.378 192.377 136.526 192.236C137.095 192.165 137.666 192.081 138.185 191.976L138.197 191.974C138.534 191.905 139.488 191.711 140.427 191.208L140.429 191.208C143.24 189.701 144.267 186.862 144.659 185.355C145.093 183.686 145.203 181.921 145.217 180.436C145.247 177.42 144.877 173.814 144.508 170.602C144.406 169.716 144.303 168.855 144.204 168.022C143.921 165.635 143.663 163.47 143.517 161.56C143.42 160.292 143.393 159.368 143.417 158.748C143.42 158.664 143.424 158.592 143.428 158.533ZM136.046 178.828C136.048 178.828 136.02 178.836 135.957 178.849C136.013 178.834 136.044 178.827 136.046 178.828ZM143.445 158.35C143.449 158.313 143.452 158.296 143.453 158.296C143.453 158.297 143.451 158.316 143.445 158.35Z" fill="black"/>
<path fill-rule="evenodd" clip-rule="evenodd" d="M104.447 9.17166C107.128 6.93654 110.96 7.5015 113.004 10.4335C118.422 18.2045 115.661 26.8573 113.791 31.8906C113.297 33.2212 112.867 34.2978 112.48 35.2682C112.347 35.6 112.22 35.9193 112.096 36.2321C112.795 36.1648 113.52 36.0942 114.267 36.0215C115.311 35.9198 116.396 35.8142 117.502 35.7084C120.981 35.3756 124.643 35.0438 127.663 34.8584C129.167 34.7661 130.588 34.7052 131.783 34.7049C132.72 34.7046 134.283 34.7228 135.598 35.1134C138.853 36.0796 140.775 39.7471 139.891 43.3051C139.036 46.7484 135.866 48.8272 132.713 48.0818C132.673 48.0819 132.402 48.0558 131.786 48.056C130.921 48.0562 129.758 48.102 128.347 48.1886C125.537 48.3611 122.044 48.6761 118.567 49.0088C117.515 49.1093 116.462 49.2119 115.433 49.312C113.108 49.5383 110.907 49.7525 109.137 49.9044C107.869 50.0132 106.713 50.0998 105.839 50.1333C105.431 50.1489 104.915 50.1606 104.427 50.1305C104.228 50.1181 103.733 50.084 103.161 49.9387C102.905 49.8739 102.264 49.6989 101.54 49.2641C100.986 48.9312 99.011 47.6258 98.4707 44.7091L98.4682 44.6959C97.7659 40.8651 98.7058 37.1932 99.5613 34.5713C100.091 32.9471 100.876 30.9602 101.556 29.2386C101.908 28.3475 102.232 27.5275 102.477 26.8658C104.399 21.6929 104.209 19.8421 103.292 18.5276C101.248 15.5956 101.765 11.4068 104.447 9.17166Z" fill="black"/>
<path fill-rule="evenodd" clip-rule="evenodd" d="M49.0903 47.8773C45.0298 48.682 40.3103 49.6174 35.4408 49.226C32.9185 49.0233 31.024 46.6234 31.2094 43.8657C31.3949 41.1081 33.5899 39.0369 36.1122 39.2396C39.7608 39.5328 43.4465 38.8181 47.8072 37.9551L47.9414 37.9285C52.063 37.1127 56.8485 36.1654 61.7635 36.6467C64.2825 36.8935 66.1417 39.3261 65.9161 42.0802C65.6904 44.8343 63.4654 46.8669 60.9463 46.6202C57.4094 46.2738 53.7852 46.9481 49.4386 47.8083C49.323 47.8312 49.2069 47.8542 49.0903 47.8773Z" fill="black"/>
<path fill-rule="evenodd" clip-rule="evenodd" d="M60.8684 79.1209C51.9478 79.9444 42.4342 80.8226 33.396 80.0972C30.8737 79.8947 28.979 77.495 29.1642 74.7373C29.3494 71.9796 31.5442 69.9082 34.0666 70.1107C42.3718 70.7773 51.2704 69.9576 60.4545 69.1101L60.5298 69.1032C69.5147 68.274 78.8418 67.4133 87.3501 68.2612C89.8688 68.5122 91.7245 70.948 91.4949 73.7017C91.2653 76.4554 89.0374 78.4843 86.5187 78.2333C78.9384 77.4778 70.4243 78.2391 61.2248 79.088L60.8684 79.1209Z" fill="black"/>
<path fill-rule="evenodd" clip-rule="evenodd" d="M42.7057 104.834C42.0564 105.526 40.9401 106.634 39.4515 107.254C37.088 108.238 34.4423 106.941 33.5422 104.357C32.6691 101.851 33.759 99.054 35.9821 97.9902C36.0361 97.9427 36.1448 97.8427 36.3136 97.6629C36.6046 97.3529 36.8178 97.0998 37.0927 96.7734C37.3063 96.5199 37.5571 96.2222 37.9104 95.8193C38.5355 95.1066 39.4566 94.1059 40.5893 93.3323C41.7759 92.5218 43.5177 91.7414 45.6278 92.0685C50.2735 92.789 54.1224 93.5209 57.5747 94.1774C67.8564 96.1326 74.625 97.4197 88.4767 95.7499C90.9906 95.4469 93.2532 97.4293 93.5304 100.178C93.8075 102.926 91.9943 105.4 89.4804 105.703C74.2539 107.538 66.1109 105.986 55.4528 103.953C52.3098 103.354 48.9481 102.713 45.1214 102.105C44.9744 102.25 44.7783 102.456 44.5211 102.75C44.4144 102.871 44.2614 103.051 44.0831 103.261C43.6727 103.744 43.1282 104.384 42.7057 104.834Z" fill="black"/>
<path fill-rule="evenodd" clip-rule="evenodd" d="M50.406 135.891C47.1298 136.573 43.262 137.379 37.5451 137C35.0206 136.833 33.0979 134.46 33.2507 131.7C33.4035 128.94 35.5739 126.838 38.0984 127.005C42.5992 127.303 45.3171 126.744 48.4852 126.092C49.241 125.936 50.0224 125.775 50.8598 125.619C55.4375 124.768 60.56 124.379 69.43 126.354C71.9082 126.906 73.5079 129.55 73.0031 132.26C72.4982 134.969 70.0799 136.718 67.6017 136.166C59.875 134.445 55.894 134.84 52.3958 135.491C51.7507 135.611 51.0913 135.748 50.406 135.891Z" fill="black"/>
<path fill-rule="evenodd" clip-rule="evenodd" d="M176.026 60.9893C175.955 61.1148 175.883 61.2423 175.81 61.3719C174.442 63.7998 172.679 66.9262 170.307 70.0846C165.548 76.4197 158.584 86.4722 151.548 96.6977C150.51 98.2063 149.471 99.7186 148.437 101.222C144.18 107.416 140.029 113.455 136.521 118.452C138.072 119.625 139.489 120.946 140.69 122.101C141.234 122.623 141.734 123.112 142.205 123.573C143.231 124.576 144.117 125.442 145.004 126.22C145.732 125.21 146.571 124.033 147.501 122.719C150.816 118.035 155.191 111.74 159.595 105.364C168.406 92.6076 177.266 79.6237 177.863 78.7373C179.471 76.3484 181.31 74.017 182.914 71.9836C183.284 71.5156 183.64 71.0634 183.979 70.6299C185.936 68.1246 187.315 66.2116 188.135 64.5605C188.522 63.782 188.687 63.247 188.751 62.9121C188.807 62.618 188.782 62.5053 188.773 62.4679C188.766 62.4345 188.534 61.4087 186.122 59.6564M135.56 134.975C134.938 134.383 134.332 133.79 133.765 133.235C133.362 132.841 132.98 132.467 132.625 132.126C131.607 131.147 130.739 130.357 129.977 129.746C129.232 132.042 128.363 134.879 127.495 137.807C127.145 138.988 126.797 140.177 126.459 141.342C127.958 140.312 129.48 139.237 130.991 138.17C131.958 137.488 132.92 136.808 133.87 136.145C134.423 135.759 134.99 135.365 135.56 134.975ZM127.701 128.35C127.686 128.349 127.677 128.348 127.677 128.347C127.677 128.346 127.685 128.347 127.701 128.35ZM149.471 140.453C149.804 140.255 150.048 140.068 150.177 139.965C150.537 139.679 150.806 139.402 150.921 139.281C151.188 139 151.435 138.703 151.612 138.484C151.996 138.011 152.47 137.386 152.99 136.686C154.046 135.261 155.485 133.256 157.16 130.888C160.519 126.141 164.929 119.796 169.34 113.41C178.16 100.641 187.054 87.6074 187.695 86.6566L187.697 86.6537C188.998 84.7202 190.448 82.8807 192.027 80.8768C192.431 80.3634 192.844 79.8392 193.265 79.2999C195.184 76.8434 197.359 73.9659 198.865 70.9347C200.399 67.8497 201.657 63.7789 200.623 59.2411C199.596 54.7347 196.653 51.2768 192.878 48.5348L192.877 48.5342C188.75 45.5375 184.913 43.4381 181.233 42.8856C176.995 42.2492 173.55 43.7364 170.876 46.3819C168.709 48.5269 167.042 51.4814 165.75 53.7721C165.711 53.8411 165.673 53.9096 165.634 53.9774C165.592 54.053 165.549 54.1287 165.506 54.2042C164.086 56.7204 162.706 59.1664 160.869 61.6116C155.912 68.2114 148.78 78.5116 141.789 88.6716C140.739 90.1975 139.692 91.7206 138.655 93.2291C132.732 101.847 127.133 109.991 123.168 115.484C122.868 115.899 122.62 116.342 122.424 116.801C121.999 117.195 121.745 117.531 121.668 117.634C121.662 117.643 121.656 117.65 121.652 117.655C121.292 118.125 121.043 118.569 120.908 118.821C120.621 119.357 120.377 119.928 120.191 120.388C119.8 121.354 119.361 122.595 118.915 123.926C118.011 126.625 116.925 130.159 115.878 133.69C114.827 137.235 113.796 140.843 112.999 143.718C112.261 146.382 111.591 148.878 111.412 149.85L111.412 149.853C111.22 150.898 111.051 152.561 111.587 154.375C112.219 156.512 113.641 158.2 115.514 159.064C117.103 159.797 118.595 159.75 119.485 159.642C120.446 159.527 121.335 159.26 122.062 158.993C124.777 157.998 128.15 155.881 131.137 153.881C133.304 152.431 135.625 150.792 137.771 149.277C138.704 148.619 139.603 147.984 140.443 147.397C143.505 145.259 145.456 144.004 146.284 143.643C147.723 143.015 148.823 141.856 149.471 140.453ZM176.026 60.9893C177.582 58.2333 178.378 56.9662 179.071 56.2802ZM179.071 56.2802C179.198 56.1554 179.238 56.1008 179.289 56.0837ZM179.289 56.0837C179.34 56.0665 179.402 56.0871 179.572 56.1126ZM179.572 56.1126C180.469 56.2473 182.432 56.9777 186.121 59.6558Z" fill="black"/>
<path fill-rule="evenodd" clip-rule="evenodd" d="M120.554 145.813C121.309 148.387 121.623 151.589 121.686 155.246C121.749 158.932 119.067 161.977 115.695 162.046C112.324 162.115 109.54 159.182 109.476 155.496C109.476 155.493 109.476 155.489 109.476 155.486C108.575 156.618 107.669 157.824 106.716 159.093C105.851 160.245 104.947 161.449 103.971 162.697C102.771 164.232 101.447 165.842 100.125 167.136C99.0828 168.157 96.9481 170.125 94.1658 170.514L94.1632 170.514C91.6016 170.871 89.4494 169.793 87.992 168.316C86.7503 167.058 86.0369 165.559 85.6298 164.575C84.9756 162.992 84.4308 160.935 84.0223 159.393C83.9396 159.08 83.8625 158.789 83.7912 158.527C83.4822 157.393 83.2038 156.464 82.9316 155.709C82.8169 155.911 82.6855 156.149 82.5401 156.411C81.9182 157.533 81.0417 159.114 80.1379 160.39C78.9682 162.041 76.9354 164.434 73.7493 165.323C71.7825 165.873 69.746 165.883 68.1196 165.81C66.8595 165.754 65.4625 165.619 64.1887 165.497C63.8053 165.46 63.433 165.424 63.079 165.392C59.6653 165.08 56.9825 165.011 54.8087 165.673C51.5603 166.663 48.1932 164.586 47.2881 161.035C46.383 157.483 48.2826 153.802 51.5311 152.812C56.0441 151.437 60.7289 151.78 64.0942 152.087C64.5911 152.132 65.0531 152.176 65.4882 152.218C66.6812 152.333 67.6716 152.428 68.6221 152.47C69.4297 152.507 69.9654 152.488 70.3042 152.455C70.3549 152.391 70.4144 152.311 70.4828 152.215C70.9225 151.594 71.2843 150.944 71.8138 149.991C72.0385 149.587 72.2933 149.129 72.5971 148.596C73.4007 147.185 74.7136 144.95 76.6152 143.289C78.8701 141.32 81.9589 140.154 85.5389 141.153L85.5404 141.153C89.3528 142.218 91.6144 145.194 92.9102 147.642C93.9244 149.557 94.6254 151.671 95.1382 153.441C95.6625 152.76 96.2385 151.995 96.8452 151.189C98.5263 148.956 100.442 146.412 102.142 144.459C103.433 142.975 104.978 141.369 106.655 140.2C108.133 139.168 111.097 137.502 114.557 138.666C118.233 139.902 119.844 143.39 120.554 145.813ZM91.4159 157.68C91.4161 157.679 91.4326 157.667 91.4648 157.647C91.4318 157.672 91.4157 157.681 91.4159 157.68ZM96.8034 159.181C96.8188 159.209 96.826 159.224 96.8258 159.225C96.8256 159.226 96.8179 159.212 96.8034 159.181ZM82.0176 153.819C82.0176 153.819 82.0237 153.825 82.0355 153.839C82.0234 153.827 82.0175 153.82 82.0176 153.819ZM108.841 149.639C108.841 149.638 108.849 149.655 108.863 149.692C108.847 149.659 108.841 149.641 108.841 149.639ZM113.403 151.344C113.402 151.347 113.37 151.368 113.31 151.397C113.374 151.355 113.404 151.341 113.403 151.344Z" fill="black"/>
</svg>
